<svg xmlns="http://www.w3.org/2000/svg" version="1.1" xmlns:xlink="http://www.w3.org/1999/xlink" xmlns:svgjs="http://svgjs.com/svgjs" width="1440" height="500" preserveAspectRatio="none" viewBox="0 0 1440 500"><g mask="url(&quot;#SvgjsMask1045&quot;)" fill="none"><rect width="1440" height="500" x="0" y="0" fill="url(#SvgjsLinearGradient1046)"></rect><path d="M-81.97 359.28L-81.97 359.28" stroke="#132e65" stroke-width="1.5"></path><path d="M-81.97 359.28L-85.75 520.74" stroke="#132e65" stroke-width="1.5"></path><path d="M-81.97 359.28L80.43 352.09" stroke="#132e65" stroke-width="1.5"></path><path d="M-85.75 520.74L-85.75 520.74" stroke="#132e65" stroke-width="1.5"></path><path d="M-85.75 520.74L40.9 515.77" stroke="#132e65" stroke-width="1.5"></path><path d="M-85.75 520.74L-79.69 655.99" stroke="#132e65" stroke-width="1.5"></path><path d="M-85.75 520.74L49.98 701.56" stroke="#132e65" stroke-width="1.5"></path><path d="M-79.69 655.99L-79.69 655.99" stroke="#132e65" stroke-width="1.5"></path><path d="M-79.69 655.99L49.98 701.56" stroke="#132e65" stroke-width="1.5"></path><path d="M80.43 352.09L80.43 352.09" stroke="#132e65" stroke-width="1.5"></path><path d="M80.43 352.09L221.69 338.55" stroke="#132e65" stroke-width="1.5"></path><path d="M80.43 352.09L40.9 515.77" stroke="#132e65" stroke-width="1.5"></path><path d="M40.9 515.77L40.9 515.77" stroke="#132e65" stroke-width="1.5"></path><path d="M40.9 515.77L-79.69 655.99" stroke="#132e65" stroke-width="1.5"></path><path d="M40.9 515.77L49.98 701.56" stroke="#132e65" stroke-width="1.5"></path><path d="M40.9 515.77L-81.97 359.28" stroke="#132e65" stroke-width="1.5"></path><path d="M40.9 515.77L240.82 562.08" stroke="#132e65" stroke-width="1.5"></path><path d="M49.98 701.56L49.98 701.56" stroke="#132e65" stroke-width="1.5"></path><path d="M49.98 701.56L259.17 712.45" stroke="#132e65" stroke-width="1.5"></path><path d="M49.98 701.56L240.82 562.08" stroke="#132e65" stroke-width="1.5"></path><path d="M221.69 338.55L221.69 338.55" stroke="#132e65" stroke-width="1.5"></path><path d="M221.69 338.55L345.01 400.53" stroke="#132e65" stroke-width="1.5"></path><path d="M221.69 338.55L240.82 562.08" stroke="#132e65" stroke-width="1.5"></path><path d="M221.69 338.55L40.9 515.77" stroke="#132e65" stroke-width="1.5"></path><path d="M240.82 562.08L240.82 562.08" stroke="#132e65" stroke-width="1.5"></path><path d="M240.82 562.08L385.75 535.58" stroke="#132e65" stroke-width="1.5"></path><path d="M240.82 562.08L259.17 712.45" stroke="#132e65" stroke-width="1.5"></path><path d="M240.82 562.08L344.6 694.54" stroke="#132e65" stroke-width="1.5"></path><path d="M240.82 562.08L345.01 400.53" stroke="#132e65" stroke-width="1.5"></path><path d="M259.17 712.45L259.17 712.45" stroke="#132e65" stroke-width="1.5"></path><path d="M259.17 712.45L344.6 694.54" stroke="#132e65" stroke-width="1.5"></path><path d="M345.01 400.53L345.01 400.53" stroke="#132e65" stroke-width="1.5"></path><path d="M345.01 400.53L385.75 535.58" stroke="#132e65" stroke-width="1.5"></path><path d="M385.75 535.58L385.75 535.58" stroke="#132e65" stroke-width="1.5"></path><path d="M385.75 535.58L528.99 502.09" stroke="#132e65" stroke-width="1.5"></path><path d="M385.75 535.58L344.6 694.54" stroke="#132e65" stroke-width="1.5"></path><path d="M344.6 694.54L344.6 694.54" stroke="#132e65" stroke-width="1.5"></path><path d="M344.6 694.54L529.28 650.16" stroke="#132e65" stroke-width="1.5"></path><path d="M344.6 694.54L528.99 502.09" stroke="#132e65" stroke-width="1.5"></path><path d="M344.6 694.54L345.01 400.53" stroke="#132e65" stroke-width="1.5"></path><path d="M538.6 364.97L538.6 364.97" stroke="#132e65" stroke-width="1.5"></path><path d="M538.6 364.97L528.99 502.09" stroke="#132e65" stroke-width="1.5"></path><path d="M538.6 364.97L345.01 400.53" stroke="#132e65" stroke-width="1.5"></path><path d="M528.99 502.09L528.99 502.09" stroke="#132e65" stroke-width="1.5"></path><path d="M528.99 502.09L529.28 650.16" stroke="#132e65" stroke-width="1.5"></path><path d="M528.99 502.09L708.3 513.81" stroke="#132e65" stroke-width="1.5"></path><path d="M528.99 502.09L345.01 400.53" stroke="#132e65" stroke-width="1.5"></path><path d="M528.99 502.09L694.59 664.97" stroke="#132e65" stroke-width="1.5"></path><path d="M529.28 650.16L529.28 650.16" stroke="#132e65" stroke-width="1.5"></path><path d="M529.28 650.16L694.59 664.97" stroke="#132e65" stroke-width="1.5"></path><path d="M529.28 650.16L385.75 535.58" stroke="#132e65" stroke-width="1.5"></path><path d="M702.83 249.48L702.83 249.48" stroke="#132e65" stroke-width="1.5"></path><path d="M702.83 249.48L826.1 251.14" stroke="#132e65" stroke-width="1.5"></path><path d="M702.83 249.48L803.77 393.03" stroke="#132e65" stroke-width="1.5"></path><path d="M702.83 249.48L538.6 364.97" stroke="#132e65" stroke-width="1.5"></path><path d="M708.3 513.81L708.3 513.81" stroke="#132e65" stroke-width="1.5"></path><path d="M708.3 513.81L797.82 534.4" stroke="#132e65" stroke-width="1.5"></path><path d="M708.3 513.81L694.59 664.97" stroke="#132e65" stroke-width="1.5"></path><path d="M708.3 513.81L803.77 393.03" stroke="#132e65" stroke-width="1.5"></path><path d="M708.3 513.81L802.26 687.23" stroke="#132e65" stroke-width="1.5"></path><path d="M708.3 513.81L529.28 650.16" stroke="#132e65" stroke-width="1.5"></path><path d="M694.59 664.97L694.59 664.97" stroke="#132e65" stroke-width="1.5"></path><path d="M694.59 664.97L802.26 687.23" stroke="#132e65" stroke-width="1.5"></path><path d="M694.59 664.97L797.82 534.4" stroke="#132e65" stroke-width="1.5"></path><path d="M826.1 251.14L826.1 251.14" stroke="#132e65" stroke-width="1.5"></path><path d="M826.1 251.14L949.32 194.75" stroke="#132e65" stroke-width="1.5"></path><path d="M803.77 393.03L803.77 393.03" stroke="#132e65" stroke-width="1.5"></path><path d="M803.77 393.03L797.82 534.4" stroke="#132e65" stroke-width="1.5"></path><path d="M803.77 393.03L826.1 251.14" stroke="#132e65" stroke-width="1.5"></path><path d="M803.77 393.03L985.53 409.41" stroke="#132e65" stroke-width="1.5"></path><path d="M803.77 393.03L942.27 536.54" stroke="#132e65" stroke-width="1.5"></path><path d="M797.82 534.4L797.82 534.4" stroke="#132e65" stroke-width="1.5"></path><path d="M797.82 534.4L942.27 536.54" stroke="#132e65" stroke-width="1.5"></path><path d="M797.82 534.4L802.26 687.23" stroke="#132e65" stroke-width="1.5"></path><path d="M802.26 687.23L802.26 687.23" stroke="#132e65" stroke-width="1.5"></path><path d="M802.26 687.23L1004.25 660.64" stroke="#132e65" stroke-width="1.5"></path><path d="M802.26 687.23L942.27 536.54" stroke="#132e65" stroke-width="1.5"></path><path d="M1001.09 -91.15L1001.09 -91.15" stroke="#132e65" stroke-width="1.5"></path><path d="M1001.09 -91.15L1094.04 -40.94" stroke="#132e65" stroke-width="1.5"></path><path d="M1001.09 -91.15L971.11 58.51" stroke="#132e65" stroke-width="1.5"></path><path d="M1001.09 -91.15L1139.26 53.78" stroke="#132e65" stroke-width="1.5"></path><path d="M1001.09 -91.15L1274.08 -98.98" stroke="#132e65" stroke-width="1.5"></path><path d="M971.11 58.51L971.11 58.51" stroke="#132e65" stroke-width="1.5"></path><path d="M971.11 58.51L949.32 194.75" stroke="#132e65" stroke-width="1.5"></path><path d="M971.11 58.51L1094.04 -40.94" stroke="#132e65" stroke-width="1.5"></path><path d="M971.11 58.51L1139.26 53.78" stroke="#132e65" stroke-width="1.5"></path><path d="M949.32 194.75L949.32 194.75" stroke="#132e65" stroke-width="1.5"></path><path d="M949.32 194.75L1116.73 213.1" stroke="#132e65" stroke-width="1.5"></path><path d="M949.32 194.75L985.53 409.41" stroke="#132e65" stroke-width="1.5"></path><path d="M985.53 409.41L985.53 409.41" stroke="#132e65" stroke-width="1.5"></path><path d="M985.53 409.41L942.27 536.54" stroke="#132e65" stroke-width="1.5"></path><path d="M985.53 409.41L1160.24 404.14" stroke="#132e65" stroke-width="1.5"></path><path d="M942.27 536.54L942.27 536.54" stroke="#132e65" stroke-width="1.5"></path><path d="M1004.25 660.64L1004.25 660.64" stroke="#132e65" stroke-width="1.5"></path><path d="M1004.25 660.64L942.27 536.54" stroke="#132e65" stroke-width="1.5"></path><path d="M1004.25 660.64L1161.31 653.64" stroke="#132e65" stroke-width="1.5"></path><path d="M1094.04 -40.94L1094.04 -40.94" stroke="#132e65" stroke-width="1.5"></path><path d="M1094.04 -40.94L1139.26 53.78" stroke="#132e65" stroke-width="1.5"></path><path d="M1139.26 53.78L1139.26 53.78" stroke="#132e65" stroke-width="1.5"></path><path d="M1139.26 53.78L1263.31 68.53" stroke="#132e65" stroke-width="1.5"></path><path d="M1139.26 53.78L1116.73 213.1" stroke="#132e65" stroke-width="1.5"></path><path d="M1116.73 213.1L1116.73 213.1" stroke="#132e65" stroke-width="1.5"></path><path d="M1116.73 213.1L1245.46 262.13" stroke="#132e65" stroke-width="1.5"></path><path d="M1160.24 404.14L1160.24 404.14" stroke="#132e65" stroke-width="1.5"></path><path d="M1160.24 404.14L1146.47 508.55" stroke="#132e65" stroke-width="1.5"></path><path d="M1160.24 404.14L1302.61 382.23" stroke="#132e65" stroke-width="1.5"></path><path d="M1160.24 404.14L1245.46 262.13" stroke="#132e65" stroke-width="1.5"></path><path d="M1146.47 508.55L1146.47 508.55" stroke="#132e65" stroke-width="1.5"></path><path d="M1146.47 508.55L1161.31 653.64" stroke="#132e65" stroke-width="1.5"></path><path d="M1146.47 508.55L1304.23 541.04" stroke="#132e65" stroke-width="1.5"></path><path d="M1146.47 508.55L985.53 409.41" stroke="#132e65" stroke-width="1.5"></path><path d="M1161.31 653.64L1161.31 653.64" stroke="#132e65" stroke-width="1.5"></path><path d="M1161.31 653.64L1295.65 676.13" stroke="#132e65" stroke-width="1.5"></path><path d="M1161.31 653.64L1304.23 541.04" stroke="#132e65" stroke-width="1.5"></path><path d="M1161.31 653.64L1388.36 670.47" stroke="#132e65" stroke-width="1.5"></path><path d="M1274.08 -98.98L1274.08 -98.98" stroke="#132e65" stroke-width="1.5"></path><path d="M1274.08 -98.98L1263.31 68.53" stroke="#132e65" stroke-width="1.5"></path><path d="M1274.08 -98.98L1094.04 -40.94" stroke="#132e65" stroke-width="1.5"></path><path d="M1274.08 -98.98L1139.26 53.78" stroke="#132e65" stroke-width="1.5"></path><path d="M1274.08 -98.98L1458.95 112.02" stroke="#132e65" stroke-width="1.5"></path><path d="M1263.31 68.53L1263.31 68.53" stroke="#132e65" stroke-width="1.5"></path><path d="M1263.31 68.53L1245.46 262.13" stroke="#132e65" stroke-width="1.5"></path><path d="M1263.31 68.53L1458.95 112.02" stroke="#132e65" stroke-width="1.5"></path><path d="M1245.46 262.13L1245.46 262.13" stroke="#132e65" stroke-width="1.5"></path><path d="M1245.46 262.13L1302.61 382.23" stroke="#132e65" stroke-width="1.5"></path><path d="M1245.46 262.13L1423.53 197.99" stroke="#132e65" stroke-width="1.5"></path><path d="M1245.46 262.13L1441.02 358.11" stroke="#132e65" stroke-width="1.5"></path><path d="M1302.61 382.23L1302.61 382.23" stroke="#132e65" stroke-width="1.5"></path><path d="M1302.61 382.23L1441.02 358.11" stroke="#132e65" stroke-width="1.5"></path><path d="M1304.23 541.04L1304.23 541.04" stroke="#132e65" stroke-width="1.5"></path><path d="M1304.23 541.04L1422.37 536.58" stroke="#132e65" stroke-width="1.5"></path><path d="M1304.23 541.04L1295.65 676.13" stroke="#132e65" stroke-width="1.5"></path><path d="M1304.23 541.04L1388.36 670.47" stroke="#132e65" stroke-width="1.5"></path><path d="M1304.23 541.04L1302.61 382.23" stroke="#132e65" stroke-width="1.5"></path><path d="M1295.65 676.13L1295.65 676.13" stroke="#132e65" stroke-width="1.5"></path><path d="M1295.65 676.13L1388.36 670.47" stroke="#132e65" stroke-width="1.5"></path><path d="M1295.65 676.13L1422.37 536.58" stroke="#132e65" stroke-width="1.5"></path><path d="M1458.95 112.02L1458.95 112.02" stroke="#132e65" stroke-width="1.5"></path><path d="M1458.95 112.02L1423.53 197.99" stroke="#132e65" stroke-width="1.5"></path><path d="M1458.95 112.02L1579.89 108.91" stroke="#132e65" stroke-width="1.5"></path><path d="M1423.53 197.99L1423.53 197.99" stroke="#132e65" stroke-width="1.5"></path><path d="M1423.53 197.99L1441.02 358.11" stroke="#132e65" stroke-width="1.5"></path><path d="M1423.53 197.99L1593.49 203.73" stroke="#132e65" stroke-width="1.5"></path><path d="M1423.53 197.99L1579.89 108.91" stroke="#132e65" stroke-width="1.5"></path><path d="M1423.53 197.99L1263.31 68.53" stroke="#132e65" stroke-width="1.5"></path><path d="M1441.02 358.11L1441.02 358.11" stroke="#132e65" stroke-width="1.5"></path><path d="M1441.02 358.11L1542.98 393.57" stroke="#132e65" stroke-width="1.5"></path><path d="M1422.37 536.58L1422.37 536.58" stroke="#132e65" stroke-width="1.5"></path><path d="M1388.36 670.47L1388.36 670.47" stroke="#132e65" stroke-width="1.5"></path><path d="M1388.36 670.47L1422.37 536.58" stroke="#132e65" stroke-width="1.5"></path><path d="M1554.48 -57.79L1554.48 -57.79" stroke="#132e65" stroke-width="1.5"></path><path d="M1554.48 -57.79L1579.89 108.91" stroke="#132e65" stroke-width="1.5"></path><path d="M1554.48 -57.79L1458.95 112.02" stroke="#132e65" stroke-width="1.5"></path><path d="M1554.48 -57.79L1593.49 203.73" stroke="#132e65" stroke-width="1.5"></path><path d="M1554.48 -57.79L1274.08 -98.98" stroke="#132e65" stroke-width="1.5"></path><path d="M1579.89 108.91L1579.89 108.91" stroke="#132e65" stroke-width="1.5"></path><path d="M1579.89 108.91L1593.49 203.73" stroke="#132e65" stroke-width="1.5"></path><path d="M1579.89 108.91L1441.02 358.11" stroke="#132e65" stroke-width="1.5"></path><path d="M1579.89 108.91L1542.98 393.57" stroke="#132e65" stroke-width="1.5"></path><path d="M1593.49 203.73L1593.49 203.73" stroke="#132e65" stroke-width="1.5"></path><path d="M1593.49 203.73L1458.95 112.02" stroke="#132e65" stroke-width="1.5"></path><path d="M1593.49 203.73L1542.98 393.57" stroke="#132e65" stroke-width="1.5"></path><path d="M1593.49 203.73L1441.02 358.11" stroke="#132e65" stroke-width="1.5"></path><path d="M1542.98 393.57L1542.98 393.57" stroke="#132e65" stroke-width="1.5"></path><path d="M1542.98 393.57L1422.37 536.58" stroke="#132e65" stroke-width="1.5"></path><path d="M1546.92 692.04L1546.92 692.04" stroke="#132e65" stroke-width="1.5"></path><path d="M1546.92 692.04L1388.36 670.47" stroke="#132e65" stroke-width="1.5"></path><path d="M1546.92 692.04L1422.37 536.58" stroke="#132e65" stroke-width="1.5"></path><path d="M1546.92 692.04L1295.65 676.13" stroke="#132e65" stroke-width="1.5"></path><path d="M1546.92 692.04L1304.23 541.04" stroke="#132e65" stroke-width="1.5"></path><path d="M1546.92 692.04L1542.98 393.57" stroke="#132e65" stroke-width="1.5"></path><path d="M1546.92 692.04L1441.02 358.11" stroke="#132e65" stroke-width="1.5"></path><circle r="5" cx="-81.97" cy="359.28" fill="#132e65"></circle><circle r="5" cx="-85.75" cy="520.74" fill="#132e65"></circle><circle r="5" cx="-79.69" cy="655.99" fill="#132e65"></circle><circle r="5" cx="80.43" cy="352.09" fill="#132e65"></circle><circle r="5" cx="40.9" cy="515.77" fill="#132e65"></circle><circle r="5" cx="49.98" cy="701.56" fill="#132e65"></circle><circle r="5" cx="221.69" cy="338.55" fill="#132e65"></circle><circle r="5" cx="240.82" cy="562.08" fill="#132e65"></circle><circle r="5" cx="259.17" cy="712.45" fill="#132e65"></circle><circle r="5" cx="345.01" cy="400.53" fill="#132e65"></circle><circle r="5" cx="385.75" cy="535.58" fill="#132e65"></circle><circle r="5" cx="344.6" cy="694.54" fill="#132e65"></circle><circle r="5" cx="538.6" cy="364.97" fill="#132e65"></circle><circle r="5" cx="528.99" cy="502.09" fill="#132e65"></circle><circle r="5" cx="529.28" cy="650.16" fill="#132e65"></circle><circle r="5" cx="702.83" cy="249.48" fill="#132e65"></circle><circle r="5" cx="708.3" cy="513.81" fill="#132e65"></circle><circle r="5" cx="694.59" cy="664.97" fill="#132e65"></circle><circle r="5" cx="826.1" cy="251.14" fill="#132e65"></circle><circle r="5" cx="803.77" cy="393.03" fill="#132e65"></circle><circle r="5" cx="797.82" cy="534.4" fill="#132e65"></circle><circle r="5" cx="802.26" cy="687.23" fill="#132e65"></circle><circle r="5" cx="1001.09" cy="-91.15" fill="#132e65"></circle><circle r="5" cx="971.11" cy="58.51" fill="#132e65"></circle><circle r="5" cx="949.32" cy="194.75" fill="#132e65"></circle><circle r="5" cx="985.53" cy="409.41" fill="#132e65"></circle><circle r="5" cx="942.27" cy="536.54" fill="#132e65"></circle><circle r="5" cx="1004.25" cy="660.64" fill="#132e65"></circle><circle r="5" cx="1094.04" cy="-40.94" fill="#132e65"></circle><circle r="5" cx="1139.26" cy="53.78" fill="#132e65"></circle><circle r="5" cx="1116.73" cy="213.1" fill="#132e65"></circle><circle r="5" cx="1160.24" cy="404.14" fill="#132e65"></circle><circle r="5" cx="1146.47" cy="508.55" fill="#132e65"></circle><circle r="5" cx="1161.31" cy="653.64" fill="#132e65"></circle><circle r="5" cx="1274.08" cy="-98.98" fill="#132e65"></circle><circle r="5" cx="1263.31" cy="68.53" fill="#132e65"></circle><circle r="5" cx="1245.46" cy="262.13" fill="#132e65"></circle><circle r="5" cx="1302.61" cy="382.23" fill="#132e65"></circle><circle r="5" cx="1304.23" cy="541.04" fill="#132e65"></circle><circle r="5" cx="1295.65" cy="676.13" fill="#132e65"></circle><circle r="5" cx="1458.95" cy="112.02" fill="#132e65"></circle><circle r="5" cx="1423.53" cy="197.99" fill="#132e65"></circle><circle r="5" cx="1441.02" cy="358.11" fill="#132e65"></circle><circle r="5" cx="1422.37" cy="536.58" fill="#132e65"></circle><circle r="5" cx="1388.36" cy="670.47" fill="#132e65"></circle><circle r="5" cx="1554.48" cy="-57.79" fill="#132e65"></circle><circle r="5" cx="1579.89" cy="108.91" fill="#132e65"></circle><circle r="5" cx="1593.49" cy="203.73" fill="#132e65"></circle><circle r="5" cx="1542.98" cy="393.57" fill="#132e65"></circle><circle r="5" cx="1546.92" cy="692.04" fill="#132e65"></circle><path d="M401.19 694.34L401.19 694.34" stroke="hsl(228.5, 77.2%, 51.5%)" stroke-width="1.5"></path><path d="M401.19 694.34L492.52 656.82" stroke="hsl(228.5, 77.2%, 51.5%)" stroke-width="1.5"></path><path d="M401.19 694.34L260.65 557.09" stroke="hsl(228.5, 77.2%, 51.5%)" stroke-width="1.5"></path><path d="M401.19 694.34L204.27 675.84" stroke="hsl(228.5, 77.2%, 51.5%)" stroke-width="1.5"></path><path d="M401.19 694.34L544.15 530.36" stroke="hsl(228.5, 77.2%, 51.5%)" stroke-width="1.5"></path><path d="M401.19 694.34L640.98 676.46" stroke="hsl(228.5, 77.2%, 51.5%)" stroke-width="1.5"></path><path d="M401.19 694.34L112.27 665.13" stroke="hsl(228.5, 77.2%, 51.5%)" stroke-width="1.5"></path><path d="M544.15 530.36L544.15 530.36" stroke="hsl(228.5, 77.2%, 51.5%)" stroke-width="1.5"></path><path d="M544.15 530.36L492.52 656.82" stroke="hsl(228.5, 77.2%, 51.5%)" stroke-width="1.5"></path><path d="M544.15 530.36L705.26 553.2" stroke="hsl(228.5, 77.2%, 51.5%)" stroke-width="1.5"></path><path d="M640.98 676.46L640.98 676.46" stroke="hsl(228.5, 77.2%, 51.5%)" stroke-width="1.5"></path><path d="M640.98 676.46L705.26 553.2" stroke="hsl(228.5, 77.2%, 51.5%)" stroke-width="1.5"></path><path d="M640.98 676.46L492.52 656.82" stroke="hsl(228.5, 77.2%, 51.5%)" stroke-width="1.5"></path><path d="M640.98 676.46L544.15 530.36" stroke="hsl(228.5, 77.2%, 51.5%)" stroke-width="1.5"></path><path d="M640.98 676.46L852.15 527.65" stroke="hsl(228.5, 77.2%, 51.5%)" stroke-width="1.5"></path><path d="M1144.74 105.85L1144.74 105.85" stroke="hsl(228.5, 77.2%, 51.5%)" stroke-width="1.5"></path><path d="M1144.74 105.85L1160.94 225.21" stroke="hsl(228.5, 77.2%, 51.5%)" stroke-width="1.5"></path><path d="M1144.74 105.85L1260.56 69.17" stroke="hsl(228.5, 77.2%, 51.5%)" stroke-width="1.5"></path><path d="M1144.74 105.85L1268.71 228.64" stroke="hsl(228.5, 77.2%, 51.5%)" stroke-width="1.5"></path><path d="M1397.75 -37.74L1397.75 -37.74" stroke="hsl(228.5, 77.2%, 51.5%)" stroke-width="1.5"></path><path d="M1397.75 -37.74L1307.69 -112.09" stroke="hsl(228.5, 77.2%, 51.5%)" stroke-width="1.5"></path><path d="M1397.75 -37.74L1424.44 83.18" stroke="hsl(228.5, 77.2%, 51.5%)" stroke-width="1.5"></path><path d="M1424.44 83.18L1424.44 83.18" stroke="hsl(228.5, 77.2%, 51.5%)" stroke-width="1.5"></path><path d="M1424.44 83.18L1572 62.83" stroke="hsl(228.5, 77.2%, 51.5%)" stroke-width="1.5"></path><path d="M1424.44 83.18L1260.56 69.17" stroke="hsl(228.5, 77.2%, 51.5%)" stroke-width="1.5"></path><path d="M1424.44 83.18L1431.34 254.17" stroke="hsl(228.5, 77.2%, 51.5%)" stroke-width="1.5"></path><path d="M1424.44 83.18L1268.71 228.64" stroke="hsl(228.5, 77.2%, 51.5%)" stroke-width="1.5"></path><path d="M1400.78 527.83L1400.78 527.83" stroke="hsl(228.5, 77.2%, 51.5%)" stroke-width="1.5"></path><path d="M1400.78 527.83L1300.22 495.42" stroke="hsl(228.5, 77.2%, 51.5%)" stroke-width="1.5"></path><path d="M1400.78 527.83L1387.74 409.11" stroke="hsl(228.5, 77.2%, 51.5%)" stroke-width="1.5"></path><path d="M1400.78 527.83L1425.41 704.56" stroke="hsl(228.5, 77.2%, 51.5%)" stroke-width="1.5"></path><path d="M1400.78 527.83L1252.88 650.46" stroke="hsl(228.5, 77.2%, 51.5%)" stroke-width="1.5"></path><path d="M-86.17 540.92L-86.17 540.92" stroke="hsl(228.5, 77.2%, 51.5%)" stroke-width="1.5"></path><path d="M-86.17 540.92L-54.9 646.93" stroke="hsl(228.5, 77.2%, 51.5%)" stroke-width="1.5"></path><path d="M-86.17 540.92L58.33 552.89" stroke="hsl(228.5, 77.2%, 51.5%)" stroke-width="1.5"></path><path d="M-86.17 540.92L112.27 665.13" stroke="hsl(228.5, 77.2%, 51.5%)" stroke-width="1.5"></path><path d="M-54.9 646.93L-54.9 646.93" stroke="hsl(228.5, 77.2%, 51.5%)" stroke-width="1.5"></path><path d="M-54.9 646.93L58.33 552.89" stroke="hsl(228.5, 77.2%, 51.5%)" stroke-width="1.5"></path><path d="M-54.9 646.93L112.27 665.13" stroke="hsl(228.5, 77.2%, 51.5%)" stroke-width="1.5"></path><path d="M-54.9 646.93L204.27 675.84" stroke="hsl(228.5, 77.2%, 51.5%)" stroke-width="1.5"></path><path d="M-54.9 646.93L260.65 557.09" stroke="hsl(228.5, 77.2%, 51.5%)" stroke-width="1.5"></path><path d="M-54.9 646.93L401.19 694.34" stroke="hsl(228.5, 77.2%, 51.5%)" stroke-width="1.5"></path><path d="M58.33 552.89L58.33 552.89" stroke="hsl(228.5, 77.2%, 51.5%)" stroke-width="1.5"></path><path d="M58.33 552.89L112.27 665.13" stroke="hsl(228.5, 77.2%, 51.5%)" stroke-width="1.5"></path><path d="M58.33 552.89L204.27 675.84" stroke="hsl(228.5, 77.2%, 51.5%)" stroke-width="1.5"></path><path d="M58.33 552.89L260.65 557.09" stroke="hsl(228.5, 77.2%, 51.5%)" stroke-width="1.5"></path><path d="M112.27 665.13L112.27 665.13" stroke="hsl(228.5, 77.2%, 51.5%)" stroke-width="1.5"></path><path d="M112.27 665.13L204.27 675.84" stroke="hsl(228.5, 77.2%, 51.5%)" stroke-width="1.5"></path><path d="M112.27 665.13L260.65 557.09" stroke="hsl(228.5, 77.2%, 51.5%)" stroke-width="1.5"></path><path d="M260.65 557.09L260.65 557.09" stroke="hsl(228.5, 77.2%, 51.5%)" stroke-width="1.5"></path><path d="M260.65 557.09L204.27 675.84" stroke="hsl(228.5, 77.2%, 51.5%)" stroke-width="1.5"></path><path d="M204.27 675.84L204.27 675.84" stroke="hsl(228.5, 77.2%, 51.5%)" stroke-width="1.5"></path><path d="M492.52 656.82L492.52 656.82" stroke="hsl(228.5, 77.2%, 51.5%)" stroke-width="1.5"></path><path d="M492.52 656.82L705.26 553.2" stroke="hsl(228.5, 77.2%, 51.5%)" stroke-width="1.5"></path><path d="M492.52 656.82L260.65 557.09" stroke="hsl(228.5, 77.2%, 51.5%)" stroke-width="1.5"></path><path d="M492.52 656.82L204.27 675.84" stroke="hsl(228.5, 77.2%, 51.5%)" stroke-width="1.5"></path><path d="M685.56 388.02L685.56 388.02" stroke="hsl(228.5, 77.2%, 51.5%)" stroke-width="1.5"></path><path d="M685.56 388.02L831.76 364.64" stroke="hsl(228.5, 77.2%, 51.5%)" stroke-width="1.5"></path><path d="M685.56 388.02L705.26 553.2" stroke="hsl(228.5, 77.2%, 51.5%)" stroke-width="1.5"></path><path d="M685.56 388.02L544.15 530.36" stroke="hsl(228.5, 77.2%, 51.5%)" stroke-width="1.5"></path><path d="M685.56 388.02L852.15 527.65" stroke="hsl(228.5, 77.2%, 51.5%)" stroke-width="1.5"></path><path d="M685.56 388.02L943.98 400.84" stroke="hsl(228.5, 77.2%, 51.5%)" stroke-width="1.5"></path><path d="M705.26 553.2L705.26 553.2" stroke="hsl(228.5, 77.2%, 51.5%)" stroke-width="1.5"></path><path d="M705.26 553.2L852.15 527.65" stroke="hsl(228.5, 77.2%, 51.5%)" stroke-width="1.5"></path><path d="M705.26 553.2L831.76 364.64" stroke="hsl(228.5, 77.2%, 51.5%)" stroke-width="1.5"></path><path d="M831.76 364.64L831.76 364.64" stroke="hsl(228.5, 77.2%, 51.5%)" stroke-width="1.5"></path><path d="M831.76 364.64L943.98 400.84" stroke="hsl(228.5, 77.2%, 51.5%)" stroke-width="1.5"></path><path d="M831.76 364.64L852.15 527.65" stroke="hsl(228.5, 77.2%, 51.5%)" stroke-width="1.5"></path><path d="M831.76 364.64L977.59 249.08" stroke="hsl(228.5, 77.2%, 51.5%)" stroke-width="1.5"></path><path d="M852.15 527.65L852.15 527.65" stroke="hsl(228.5, 77.2%, 51.5%)" stroke-width="1.5"></path><path d="M852.15 527.65L993.69 517.91" stroke="hsl(228.5, 77.2%, 51.5%)" stroke-width="1.5"></path><path d="M852.15 527.65L943.98 400.84" stroke="hsl(228.5, 77.2%, 51.5%)" stroke-width="1.5"></path><path d="M977.59 249.08L977.59 249.08" stroke="hsl(228.5, 77.2%, 51.5%)" stroke-width="1.5"></path><path d="M977.59 249.08L943.98 400.84" stroke="hsl(228.5, 77.2%, 51.5%)" stroke-width="1.5"></path><path d="M977.59 249.08L1160.94 225.21" stroke="hsl(228.5, 77.2%, 51.5%)" stroke-width="1.5"></path><path d="M977.59 249.08L1120.78 368.14" stroke="hsl(228.5, 77.2%, 51.5%)" stroke-width="1.5"></path><path d="M977.59 249.08L1144.74 105.85" stroke="hsl(228.5, 77.2%, 51.5%)" stroke-width="1.5"></path><path d="M977.59 249.08L993.69 517.91" stroke="hsl(228.5, 77.2%, 51.5%)" stroke-width="1.5"></path><path d="M943.98 400.84L943.98 400.84" stroke="hsl(228.5, 77.2%, 51.5%)" stroke-width="1.5"></path><path d="M943.98 400.84L993.69 517.91" stroke="hsl(228.5, 77.2%, 51.5%)" stroke-width="1.5"></path><path d="M993.69 517.91L993.69 517.91" stroke="hsl(228.5, 77.2%, 51.5%)" stroke-width="1.5"></path><path d="M993.69 517.91L1089.68 530.34" stroke="hsl(228.5, 77.2%, 51.5%)" stroke-width="1.5"></path><path d="M1000.25 670.05L1000.25 670.05" stroke="hsl(228.5, 77.2%, 51.5%)" stroke-width="1.5"></path><path d="M1000.25 670.05L993.69 517.91" stroke="hsl(228.5, 77.2%, 51.5%)" stroke-width="1.5"></path><path d="M1000.25 670.05L1160.67 674.66" stroke="hsl(228.5, 77.2%, 51.5%)" stroke-width="1.5"></path><path d="M1160.94 225.21L1160.94 225.21" stroke="hsl(228.5, 77.2%, 51.5%)" stroke-width="1.5"></path><path d="M1160.94 225.21L1268.71 228.64" stroke="hsl(228.5, 77.2%, 51.5%)" stroke-width="1.5"></path><path d="M1160.94 225.21L1120.78 368.14" stroke="hsl(228.5, 77.2%, 51.5%)" stroke-width="1.5"></path><path d="M1160.94 225.21L1249.37 349.68" stroke="hsl(228.5, 77.2%, 51.5%)" stroke-width="1.5"></path><path d="M1120.78 368.14L1120.78 368.14" stroke="hsl(228.5, 77.2%, 51.5%)" stroke-width="1.5"></path><path d="M1120.78 368.14L1249.37 349.68" stroke="hsl(228.5, 77.2%, 51.5%)" stroke-width="1.5"></path><path d="M1120.78 368.14L1089.68 530.34" stroke="hsl(228.5, 77.2%, 51.5%)" stroke-width="1.5"></path><path d="M1120.78 368.14L943.98 400.84" stroke="hsl(228.5, 77.2%, 51.5%)" stroke-width="1.5"></path><path d="M1120.78 368.14L993.69 517.91" stroke="hsl(228.5, 77.2%, 51.5%)" stroke-width="1.5"></path><path d="M1089.68 530.34L1089.68 530.34" stroke="hsl(228.5, 77.2%, 51.5%)" stroke-width="1.5"></path><path d="M1089.68 530.34L1160.67 674.66" stroke="hsl(228.5, 77.2%, 51.5%)" stroke-width="1.5"></path><path d="M1089.68 530.34L1000.25 670.05" stroke="hsl(228.5, 77.2%, 51.5%)" stroke-width="1.5"></path><path d="M1089.68 530.34L943.98 400.84" stroke="hsl(228.5, 77.2%, 51.5%)" stroke-width="1.5"></path><path d="M1089.68 530.34L1252.88 650.46" stroke="hsl(228.5, 77.2%, 51.5%)" stroke-width="1.5"></path><path d="M1160.67 674.66L1160.67 674.66" stroke="hsl(228.5, 77.2%, 51.5%)" stroke-width="1.5"></path><path d="M1160.67 674.66L1252.88 650.46" stroke="hsl(228.5, 77.2%, 51.5%)" stroke-width="1.5"></path><path d="M1307.69 -112.09L1307.69 -112.09" stroke="hsl(228.5, 77.2%, 51.5%)" stroke-width="1.5"></path><path d="M1260.56 69.17L1260.56 69.17" stroke="hsl(228.5, 77.2%, 51.5%)" stroke-width="1.5"></path><path d="M1260.56 69.17L1268.71 228.64" stroke="hsl(228.5, 77.2%, 51.5%)" stroke-width="1.5"></path><path d="M1268.71 228.64L1268.71 228.64" stroke="hsl(228.5, 77.2%, 51.5%)" stroke-width="1.5"></path><path d="M1268.71 228.64L1249.37 349.68" stroke="hsl(228.5, 77.2%, 51.5%)" stroke-width="1.5"></path><path d="M1249.37 349.68L1249.37 349.68" stroke="hsl(228.5, 77.2%, 51.5%)" stroke-width="1.5"></path><path d="M1249.37 349.68L1387.74 409.11" stroke="hsl(228.5, 77.2%, 51.5%)" stroke-width="1.5"></path><path d="M1249.37 349.68L1300.22 495.42" stroke="hsl(228.5, 77.2%, 51.5%)" stroke-width="1.5"></path><path d="M1249.37 349.68L1431.34 254.17" stroke="hsl(228.5, 77.2%, 51.5%)" stroke-width="1.5"></path><path d="M1300.22 495.42L1300.22 495.42" stroke="hsl(228.5, 77.2%, 51.5%)" stroke-width="1.5"></path><path d="M1300.22 495.42L1387.74 409.11" stroke="hsl(228.5, 77.2%, 51.5%)" stroke-width="1.5"></path><path d="M1252.88 650.46L1252.88 650.46" stroke="hsl(228.5, 77.2%, 51.5%)" stroke-width="1.5"></path><path d="M1252.88 650.46L1300.22 495.42" stroke="hsl(228.5, 77.2%, 51.5%)" stroke-width="1.5"></path><path d="M1252.88 650.46L1425.41 704.56" stroke="hsl(228.5, 77.2%, 51.5%)" stroke-width="1.5"></path><path d="M1252.88 650.46L1000.25 670.05" stroke="hsl(228.5, 77.2%, 51.5%)" stroke-width="1.5"></path><path d="M1431.34 254.17L1431.34 254.17" stroke="hsl(228.5, 77.2%, 51.5%)" stroke-width="1.5"></path><path d="M1431.34 254.17L1583.93 244.87" stroke="hsl(228.5, 77.2%, 51.5%)" stroke-width="1.5"></path><path d="M1431.34 254.17L1387.74 409.11" stroke="hsl(228.5, 77.2%, 51.5%)" stroke-width="1.5"></path><path d="M1431.34 254.17L1268.71 228.64" stroke="hsl(228.5, 77.2%, 51.5%)" stroke-width="1.5"></path><path d="M1387.74 409.11L1387.74 409.11" stroke="hsl(228.5, 77.2%, 51.5%)" stroke-width="1.5"></path><path d="M1425.41 704.56L1425.41 704.56" stroke="hsl(228.5, 77.2%, 51.5%)" stroke-width="1.5"></path><path d="M1425.41 704.56L1552.13 679.7" stroke="hsl(228.5, 77.2%, 51.5%)" stroke-width="1.5"></path><path d="M1425.41 704.56L1300.22 495.42" stroke="hsl(228.5, 77.2%, 51.5%)" stroke-width="1.5"></path><path d="M1588.68 -107.04L1588.68 -107.04" stroke="hsl(228.5, 77.2%, 51.5%)" stroke-width="1.5"></path><path d="M1588.68 -107.04L1572 62.83" stroke="hsl(228.5, 77.2%, 51.5%)" stroke-width="1.5"></path><path d="M1588.68 -107.04L1397.75 -37.74" stroke="hsl(228.5, 77.2%, 51.5%)" stroke-width="1.5"></path><path d="M1588.68 -107.04L1424.44 83.18" stroke="hsl(228.5, 77.2%, 51.5%)" stroke-width="1.5"></path><path d="M1588.68 -107.04L1307.69 -112.09" stroke="hsl(228.5, 77.2%, 51.5%)" stroke-width="1.5"></path><path d="M1588.68 -107.04L1583.93 244.87" stroke="hsl(228.5, 77.2%, 51.5%)" stroke-width="1.5"></path><path d="M1572 62.83L1572 62.83" stroke="hsl(228.5, 77.2%, 51.5%)" stroke-width="1.5"></path><path d="M1572 62.83L1583.93 244.87" stroke="hsl(228.5, 77.2%, 51.5%)" stroke-width="1.5"></path><path d="M1572 62.83L1397.75 -37.74" stroke="hsl(228.5, 77.2%, 51.5%)" stroke-width="1.5"></path><path d="M1583.93 244.87L1583.93 244.87" stroke="hsl(228.5, 77.2%, 51.5%)" stroke-width="1.5"></path><path d="M1583.93 244.87L1552.83 409.16" stroke="hsl(228.5, 77.2%, 51.5%)" stroke-width="1.5"></path><path d="M1552.83 409.16L1552.83 409.16" stroke="hsl(228.5, 77.2%, 51.5%)" stroke-width="1.5"></path><path d="M1552.83 409.16L1605.15 519.7" stroke="hsl(228.5, 77.2%, 51.5%)" stroke-width="1.5"></path><path d="M1552.83 409.16L1387.74 409.11" stroke="hsl(228.5, 77.2%, 51.5%)" stroke-width="1.5"></path><path d="M1605.15 519.7L1605.15 519.7" stroke="hsl(228.5, 77.2%, 51.5%)" stroke-width="1.5"></path><path d="M1605.15 519.7L1552.13 679.7" stroke="hsl(228.5, 77.2%, 51.5%)" stroke-width="1.5"></path><path d="M1552.13 679.7L1552.13 679.7" stroke="hsl(228.5, 77.2%, 51.5%)" stroke-width="1.5"></path><path d="M1552.13 679.7L1400.78 527.83" stroke="hsl(228.5, 77.2%, 51.5%)" stroke-width="1.5"></path><circle r="25" cx="401.19" cy="694.34" fill="url(#SvgjsRadialGradient1047)"></circle><circle r="25" cx="544.15" cy="530.36" fill="url(#SvgjsRadialGradient1047)"></circle><circle r="25" cx="640.98" cy="676.46" fill="url(#SvgjsRadialGradient1047)"></circle><circle r="25" cx="1144.74" cy="105.85" fill="url(#SvgjsRadialGradient1047)"></circle><circle r="25" cx="1397.75" cy="-37.74" fill="url(#SvgjsRadialGradient1047)"></circle><circle r="25" cx="1424.44" cy="83.18" fill="url(#SvgjsRadialGradient1047)"></circle><circle r="25" cx="1400.78" cy="527.83" fill="url(#SvgjsRadialGradient1047)"></circle><circle r="5" cx="-86.17" cy="540.92" fill="#8b9ad9"></circle><circle r="5" cx="-54.9" cy="646.93" fill="#8b9ad9"></circle><circle r="5" cx="58.33" cy="552.89" fill="#8b9ad9"></circle><circle r="5" cx="112.27" cy="665.13" fill="#8b9ad9"></circle><circle r="5" cx="260.65" cy="557.09" fill="#8b9ad9"></circle><circle r="5" cx="204.27" cy="675.84" fill="#8b9ad9"></circle><circle r="5" cx="492.52" cy="656.82" fill="#8b9ad9"></circle><circle r="5" cx="685.56" cy="388.02" fill="#8b9ad9"></circle><circle r="5" cx="705.26" cy="553.2" fill="#8b9ad9"></circle><circle r="5" cx="831.76" cy="364.64" fill="#8b9ad9"></circle><circle r="5" cx="852.15" cy="527.65" fill="#8b9ad9"></circle><circle r="5" cx="977.59" cy="249.08" fill="#8b9ad9"></circle><circle r="5" cx="943.98" cy="400.84" fill="#8b9ad9"></circle><circle r="5" cx="993.69" cy="517.91" fill="#8b9ad9"></circle><circle r="5" cx="1000.25" cy="670.05" fill="#8b9ad9"></circle><circle r="5" cx="1160.94" cy="225.21" fill="#8b9ad9"></circle><circle r="5" cx="1120.78" cy="368.14" fill="#8b9ad9"></circle><circle r="5" cx="1089.68" cy="530.34" fill="#8b9ad9"></circle><circle r="5" cx="1160.67" cy="674.66" fill="#8b9ad9"></circle><circle r="5" cx="1307.69" cy="-112.09" fill="#8b9ad9"></circle><circle r="5" cx="1260.56" cy="69.17" fill="#8b9ad9"></circle><circle r="5" cx="1268.71" cy="228.64" fill="#8b9ad9"></circle><circle r="5" cx="1249.37" cy="349.68" fill="#8b9ad9"></circle><circle r="5" cx="1300.22" cy="495.42" fill="#8b9ad9"></circle><circle r="5" cx="1252.88" cy="650.46" fill="#8b9ad9"></circle><circle r="5" cx="1431.34" cy="254.17" fill="#8b9ad9"></circle><circle r="5" cx="1387.74" cy="409.11" fill="#8b9ad9"></circle><circle r="5" cx="1425.41" cy="704.56" fill="#8b9ad9"></circle><circle r="5" cx="1588.68" cy="-107.04" fill="#8b9ad9"></circle><circle r="5" cx="1572" cy="62.83" fill="#8b9ad9"></circle><circle r="5" cx="1583.93" cy="244.87" fill="#8b9ad9"></circle><circle r="5" cx="1552.83" cy="409.16" fill="#8b9ad9"></circle><circle r="5" cx="1605.15" cy="519.7" fill="#8b9ad9"></circle><circle r="5" cx="1552.13" cy="679.7" fill="#8b9ad9"></circle></g><defs><mask id="SvgjsMask1045"><rect width="1440" height="500" fill="#ffffff"></rect></mask><linearGradient x1="16.32%" y1="-47%" x2="83.68%" y2="147%" gradientUnits="userSpaceOnUse" id="SvgjsLinearGradient1046"><stop stop-color="#0e2a47" offset="0"></stop><stop stop-color="#00459e" offset="1"></stop></linearGradient><radialGradient id="SvgjsRadialGradient1047"><stop stop-color="#ffffff" offset="0.1"></stop><stop stop-color="#1735b3" offset="0.2"></stop><stop stop-color="rgba(23, 53, 179, 0)" offset="1"></stop></radialGradient></defs></svg>