<svg xmlns="http://www.w3.org/2000/svg" version="1.1" xmlns:xlink="http://www.w3.org/1999/xlink" xmlns:svgjs="http://svgjs.com/svgjs" width="1440" height="500" preserveAspectRatio="none" viewBox="0 0 1440 500"><g mask="url(&quot;#SvgjsMask1057&quot;)" fill="none"><rect width="1440" height="500" x="0" y="0" fill="url(#SvgjsLinearGradient1058)"></rect><path d="M-79.58 403.03L-79.58 403.03" stroke="#132e65" stroke-width="1.5"></path><path d="M-79.58 403.03L-94.42 526.66" stroke="#132e65" stroke-width="1.5"></path><path d="M-79.58 403.03L68.98 488.79" stroke="#132e65" stroke-width="1.5"></path><path d="M-94.42 526.66L-94.42 526.66" stroke="#132e65" stroke-width="1.5"></path><path d="M-94.42 526.66L-79.76 657.29" stroke="#132e65" stroke-width="1.5"></path><path d="M-94.42 526.66L68.98 488.79" stroke="#132e65" stroke-width="1.5"></path><path d="M-79.76 657.29L-79.76 657.29" stroke="#132e65" stroke-width="1.5"></path><path d="M-79.76 657.29L102.65 676.64" stroke="#132e65" stroke-width="1.5"></path><path d="M-79.76 657.29L68.98 488.79" stroke="#132e65" stroke-width="1.5"></path><path d="M-79.76 657.29L-79.58 403.03" stroke="#132e65" stroke-width="1.5"></path><path d="M-79.76 657.29L202.26 653.6" stroke="#132e65" stroke-width="1.5"></path><path d="M-79.76 657.29L92.25 374.08" stroke="#132e65" stroke-width="1.5"></path><path d="M92.25 374.08L92.25 374.08" stroke="#132e65" stroke-width="1.5"></path><path d="M92.25 374.08L68.98 488.79" stroke="#132e65" stroke-width="1.5"></path><path d="M92.25 374.08L230.89 377.74" stroke="#132e65" stroke-width="1.5"></path><path d="M68.98 488.79L68.98 488.79" stroke="#132e65" stroke-width="1.5"></path><path d="M68.98 488.79L238.34 513.4" stroke="#132e65" stroke-width="1.5"></path><path d="M68.98 488.79L102.65 676.64" stroke="#132e65" stroke-width="1.5"></path><path d="M68.98 488.79L230.89 377.74" stroke="#132e65" stroke-width="1.5"></path><path d="M102.65 676.64L102.65 676.64" stroke="#132e65" stroke-width="1.5"></path><path d="M102.65 676.64L202.26 653.6" stroke="#132e65" stroke-width="1.5"></path><path d="M230.89 377.74L230.89 377.74" stroke="#132e65" stroke-width="1.5"></path><path d="M230.89 377.74L238.34 513.4" stroke="#132e65" stroke-width="1.5"></path><path d="M230.89 377.74L369.25 391.94" stroke="#132e65" stroke-width="1.5"></path><path d="M238.34 513.4L238.34 513.4" stroke="#132e65" stroke-width="1.5"></path><path d="M238.34 513.4L202.26 653.6" stroke="#132e65" stroke-width="1.5"></path><path d="M202.26 653.6L202.26 653.6" stroke="#132e65" stroke-width="1.5"></path><path d="M202.26 653.6L388.29 698.89" stroke="#132e65" stroke-width="1.5"></path><path d="M202.26 653.6L68.98 488.79" stroke="#132e65" stroke-width="1.5"></path><path d="M202.26 653.6L404.13 528.56" stroke="#132e65" stroke-width="1.5"></path><path d="M202.26 653.6L230.89 377.74" stroke="#132e65" stroke-width="1.5"></path><path d="M369.25 391.94L369.25 391.94" stroke="#132e65" stroke-width="1.5"></path><path d="M369.25 391.94L404.13 528.56" stroke="#132e65" stroke-width="1.5"></path><path d="M404.13 528.56L404.13 528.56" stroke="#132e65" stroke-width="1.5"></path><path d="M404.13 528.56L541.08 560.07" stroke="#132e65" stroke-width="1.5"></path><path d="M404.13 528.56L238.34 513.4" stroke="#132e65" stroke-width="1.5"></path><path d="M404.13 528.56L388.29 698.89" stroke="#132e65" stroke-width="1.5"></path><path d="M404.13 528.56L527.51 665.58" stroke="#132e65" stroke-width="1.5"></path><path d="M388.29 698.89L388.29 698.89" stroke="#132e65" stroke-width="1.5"></path><path d="M388.29 698.89L527.51 665.58" stroke="#132e65" stroke-width="1.5"></path><path d="M388.29 698.89L541.08 560.07" stroke="#132e65" stroke-width="1.5"></path><path d="M388.29 698.89L238.34 513.4" stroke="#132e65" stroke-width="1.5"></path><path d="M540.24 241.52L540.24 241.52" stroke="#132e65" stroke-width="1.5"></path><path d="M540.24 241.52L523.98 386.25" stroke="#132e65" stroke-width="1.5"></path><path d="M540.24 241.52L692.55 213.21" stroke="#132e65" stroke-width="1.5"></path><path d="M540.24 241.52L694.45 382.59" stroke="#132e65" stroke-width="1.5"></path><path d="M540.24 241.52L369.25 391.94" stroke="#132e65" stroke-width="1.5"></path><path d="M540.24 241.52L822.87 227.79" stroke="#132e65" stroke-width="1.5"></path><path d="M523.98 386.25L523.98 386.25" stroke="#132e65" stroke-width="1.5"></path><path d="M523.98 386.25L369.25 391.94" stroke="#132e65" stroke-width="1.5"></path><path d="M523.98 386.25L694.45 382.59" stroke="#132e65" stroke-width="1.5"></path><path d="M523.98 386.25L541.08 560.07" stroke="#132e65" stroke-width="1.5"></path><path d="M541.08 560.07L541.08 560.07" stroke="#132e65" stroke-width="1.5"></path><path d="M541.08 560.07L527.51 665.58" stroke="#132e65" stroke-width="1.5"></path><path d="M541.08 560.07L651.05 537.75" stroke="#132e65" stroke-width="1.5"></path><path d="M541.08 560.07L638.16 675.18" stroke="#132e65" stroke-width="1.5"></path><path d="M527.51 665.58L527.51 665.58" stroke="#132e65" stroke-width="1.5"></path><path d="M527.51 665.58L638.16 675.18" stroke="#132e65" stroke-width="1.5"></path><path d="M692.55 213.21L692.55 213.21" stroke="#132e65" stroke-width="1.5"></path><path d="M692.55 213.21L822.87 227.79" stroke="#132e65" stroke-width="1.5"></path><path d="M692.55 213.21L694.45 382.59" stroke="#132e65" stroke-width="1.5"></path><path d="M692.55 213.21L852.01 98.58" stroke="#132e65" stroke-width="1.5"></path><path d="M694.45 382.59L694.45 382.59" stroke="#132e65" stroke-width="1.5"></path><path d="M694.45 382.59L792.79 382.65" stroke="#132e65" stroke-width="1.5"></path><path d="M694.45 382.59L651.05 537.75" stroke="#132e65" stroke-width="1.5"></path><path d="M651.05 537.75L651.05 537.75" stroke="#132e65" stroke-width="1.5"></path><path d="M651.05 537.75L638.16 675.18" stroke="#132e65" stroke-width="1.5"></path><path d="M651.05 537.75L813.07 557.93" stroke="#132e65" stroke-width="1.5"></path><path d="M651.05 537.75L527.51 665.58" stroke="#132e65" stroke-width="1.5"></path><path d="M651.05 537.75L523.98 386.25" stroke="#132e65" stroke-width="1.5"></path><path d="M638.16 675.18L638.16 675.18" stroke="#132e65" stroke-width="1.5"></path><path d="M852.01 98.58L852.01 98.58" stroke="#132e65" stroke-width="1.5"></path><path d="M852.01 98.58L822.87 227.79" stroke="#132e65" stroke-width="1.5"></path><path d="M852.01 98.58L1003.73 80.73" stroke="#132e65" stroke-width="1.5"></path><path d="M822.87 227.79L822.87 227.79" stroke="#132e65" stroke-width="1.5"></path><path d="M822.87 227.79L962.83 212.05" stroke="#132e65" stroke-width="1.5"></path><path d="M822.87 227.79L792.79 382.65" stroke="#132e65" stroke-width="1.5"></path><path d="M792.79 382.65L792.79 382.65" stroke="#132e65" stroke-width="1.5"></path><path d="M792.79 382.65L962.1 360.26" stroke="#132e65" stroke-width="1.5"></path><path d="M813.07 557.93L813.07 557.93" stroke="#132e65" stroke-width="1.5"></path><path d="M813.07 557.93L787.6 690.47" stroke="#132e65" stroke-width="1.5"></path><path d="M813.07 557.93L792.79 382.65" stroke="#132e65" stroke-width="1.5"></path><path d="M813.07 557.93L963.62 678.98" stroke="#132e65" stroke-width="1.5"></path><path d="M813.07 557.93L1011.19 546.89" stroke="#132e65" stroke-width="1.5"></path><path d="M813.07 557.93L638.16 675.18" stroke="#132e65" stroke-width="1.5"></path><path d="M787.6 690.47L787.6 690.47" stroke="#132e65" stroke-width="1.5"></path><path d="M787.6 690.47L638.16 675.18" stroke="#132e65" stroke-width="1.5"></path><path d="M787.6 690.47L963.62 678.98" stroke="#132e65" stroke-width="1.5"></path><path d="M1003.73 80.73L1003.73 80.73" stroke="#132e65" stroke-width="1.5"></path><path d="M1003.73 80.73L1108.78 74.2" stroke="#132e65" stroke-width="1.5"></path><path d="M1003.73 80.73L962.83 212.05" stroke="#132e65" stroke-width="1.5"></path><path d="M962.83 212.05L962.83 212.05" stroke="#132e65" stroke-width="1.5"></path><path d="M962.83 212.05L962.1 360.26" stroke="#132e65" stroke-width="1.5"></path><path d="M962.1 360.26L962.1 360.26" stroke="#132e65" stroke-width="1.5"></path><path d="M962.1 360.26L1153.78 351.03" stroke="#132e65" stroke-width="1.5"></path><path d="M962.1 360.26L822.87 227.79" stroke="#132e65" stroke-width="1.5"></path><path d="M962.1 360.26L1011.19 546.89" stroke="#132e65" stroke-width="1.5"></path><path d="M1011.19 546.89L1011.19 546.89" stroke="#132e65" stroke-width="1.5"></path><path d="M1011.19 546.89L1103.14 522.67" stroke="#132e65" stroke-width="1.5"></path><path d="M1011.19 546.89L963.62 678.98" stroke="#132e65" stroke-width="1.5"></path><path d="M1011.19 546.89L1112.98 683.38" stroke="#132e65" stroke-width="1.5"></path><path d="M963.62 678.98L963.62 678.98" stroke="#132e65" stroke-width="1.5"></path><path d="M963.62 678.98L1112.98 683.38" stroke="#132e65" stroke-width="1.5"></path><path d="M1130.13 -49.12L1130.13 -49.12" stroke="#132e65" stroke-width="1.5"></path><path d="M1130.13 -49.12L1108.78 74.2" stroke="#132e65" stroke-width="1.5"></path><path d="M1130.13 -49.12L1257.8 -51.26" stroke="#132e65" stroke-width="1.5"></path><path d="M1130.13 -49.12L1262.15 64.91" stroke="#132e65" stroke-width="1.5"></path><path d="M1130.13 -49.12L1003.73 80.73" stroke="#132e65" stroke-width="1.5"></path><path d="M1108.78 74.2L1108.78 74.2" stroke="#132e65" stroke-width="1.5"></path><path d="M1108.78 74.2L1262.15 64.91" stroke="#132e65" stroke-width="1.5"></path><path d="M1108.78 74.2L1257.8 -51.26" stroke="#132e65" stroke-width="1.5"></path><path d="M1108.78 74.2L962.83 212.05" stroke="#132e65" stroke-width="1.5"></path><path d="M1108.78 74.2L1272.05 205.08" stroke="#132e65" stroke-width="1.5"></path><path d="M1153.78 351.03L1153.78 351.03" stroke="#132e65" stroke-width="1.5"></path><path d="M1153.78 351.03L1280.94 395.85" stroke="#132e65" stroke-width="1.5"></path><path d="M1153.78 351.03L1103.14 522.67" stroke="#132e65" stroke-width="1.5"></path><path d="M1153.78 351.03L1272.05 205.08" stroke="#132e65" stroke-width="1.5"></path><path d="M1153.78 351.03L962.83 212.05" stroke="#132e65" stroke-width="1.5"></path><path d="M1103.14 522.67L1103.14 522.67" stroke="#132e65" stroke-width="1.5"></path><path d="M1103.14 522.67L1112.98 683.38" stroke="#132e65" stroke-width="1.5"></path><path d="M1103.14 522.67L963.62 678.98" stroke="#132e65" stroke-width="1.5"></path><path d="M1112.98 683.38L1112.98 683.38" stroke="#132e65" stroke-width="1.5"></path><path d="M1112.98 683.38L1271.19 681.47" stroke="#132e65" stroke-width="1.5"></path><path d="M1257.8 -51.26L1257.8 -51.26" stroke="#132e65" stroke-width="1.5"></path><path d="M1257.8 -51.26L1262.15 64.91" stroke="#132e65" stroke-width="1.5"></path><path d="M1257.8 -51.26L1409.29 -96.68" stroke="#132e65" stroke-width="1.5"></path><path d="M1262.15 64.91L1262.15 64.91" stroke="#132e65" stroke-width="1.5"></path><path d="M1262.15 64.91L1272.05 205.08" stroke="#132e65" stroke-width="1.5"></path><path d="M1262.15 64.91L1409.29 -96.68" stroke="#132e65" stroke-width="1.5"></path><path d="M1272.05 205.08L1272.05 205.08" stroke="#132e65" stroke-width="1.5"></path><path d="M1272.05 205.08L1427.73 258.44" stroke="#132e65" stroke-width="1.5"></path><path d="M1280.94 395.85L1280.94 395.85" stroke="#132e65" stroke-width="1.5"></path><path d="M1280.94 395.85L1438.26 397.44" stroke="#132e65" stroke-width="1.5"></path><path d="M1280.94 395.85L1272.05 205.08" stroke="#132e65" stroke-width="1.5"></path><path d="M1280.94 395.85L1393.98 560.18" stroke="#132e65" stroke-width="1.5"></path><path d="M1280.94 395.85L1427.73 258.44" stroke="#132e65" stroke-width="1.5"></path><path d="M1271.19 681.47L1271.19 681.47" stroke="#132e65" stroke-width="1.5"></path><path d="M1409.29 -96.68L1409.29 -96.68" stroke="#132e65" stroke-width="1.5"></path><path d="M1409.29 -96.68L1542.52 -46.96" stroke="#132e65" stroke-width="1.5"></path><path d="M1427.73 258.44L1427.73 258.44" stroke="#132e65" stroke-width="1.5"></path><path d="M1427.73 258.44L1438.26 397.44" stroke="#132e65" stroke-width="1.5"></path><path d="M1427.73 258.44L1577.94 194.96" stroke="#132e65" stroke-width="1.5"></path><path d="M1438.26 397.44L1438.26 397.44" stroke="#132e65" stroke-width="1.5"></path><path d="M1438.26 397.44L1540.36 396.44" stroke="#132e65" stroke-width="1.5"></path><path d="M1393.98 560.18L1393.98 560.18" stroke="#132e65" stroke-width="1.5"></path><path d="M1393.98 560.18L1431.22 709.76" stroke="#132e65" stroke-width="1.5"></path><path d="M1393.98 560.18L1438.26 397.44" stroke="#132e65" stroke-width="1.5"></path><path d="M1431.22 709.76L1431.22 709.76" stroke="#132e65" stroke-width="1.5"></path><path d="M1431.22 709.76L1587.36 665.73" stroke="#132e65" stroke-width="1.5"></path><path d="M1542.52 -46.96L1542.52 -46.96" stroke="#132e65" stroke-width="1.5"></path><path d="M1542.52 -46.96L1561.2 62.12" stroke="#132e65" stroke-width="1.5"></path><path d="M1561.2 62.12L1561.2 62.12" stroke="#132e65" stroke-width="1.5"></path><path d="M1561.2 62.12L1577.94 194.96" stroke="#132e65" stroke-width="1.5"></path><path d="M1561.2 62.12L1409.29 -96.68" stroke="#132e65" stroke-width="1.5"></path><path d="M1561.2 62.12L1427.73 258.44" stroke="#132e65" stroke-width="1.5"></path><path d="M1561.2 62.12L1262.15 64.91" stroke="#132e65" stroke-width="1.5"></path><path d="M1577.94 194.96L1577.94 194.96" stroke="#132e65" stroke-width="1.5"></path><path d="M1577.94 194.96L1540.36 396.44" stroke="#132e65" stroke-width="1.5"></path><path d="M1577.94 194.96L1542.52 -46.96" stroke="#132e65" stroke-width="1.5"></path><path d="M1577.94 194.96L1438.26 397.44" stroke="#132e65" stroke-width="1.5"></path><path d="M1577.94 194.96L1581.9 494.87" stroke="#132e65" stroke-width="1.5"></path><path d="M1540.36 396.44L1540.36 396.44" stroke="#132e65" stroke-width="1.5"></path><path d="M1540.36 396.44L1581.9 494.87" stroke="#132e65" stroke-width="1.5"></path><path d="M1540.36 396.44L1427.73 258.44" stroke="#132e65" stroke-width="1.5"></path><path d="M1540.36 396.44L1393.98 560.18" stroke="#132e65" stroke-width="1.5"></path><path d="M1581.9 494.87L1581.9 494.87" stroke="#132e65" stroke-width="1.5"></path><path d="M1581.9 494.87L1587.36 665.73" stroke="#132e65" stroke-width="1.5"></path><path d="M1581.9 494.87L1438.26 397.44" stroke="#132e65" stroke-width="1.5"></path><path d="M1587.36 665.73L1587.36 665.73" stroke="#132e65" stroke-width="1.5"></path><path d="M1587.36 665.73L1393.98 560.18" stroke="#132e65" stroke-width="1.5"></path><path d="M1587.36 665.73L1540.36 396.44" stroke="#132e65" stroke-width="1.5"></path><path d="M1587.36 665.73L1438.26 397.44" stroke="#132e65" stroke-width="1.5"></path><path d="M1587.36 665.73L1271.19 681.47" stroke="#132e65" stroke-width="1.5"></path><circle r="5" cx="-79.58" cy="403.03" fill="#132e65"></circle><circle r="5" cx="-94.42" cy="526.66" fill="#132e65"></circle><circle r="5" cx="-79.76" cy="657.29" fill="#132e65"></circle><circle r="5" cx="92.25" cy="374.08" fill="#132e65"></circle><circle r="5" cx="68.98" cy="488.79" fill="#132e65"></circle><circle r="5" cx="102.65" cy="676.64" fill="#132e65"></circle><circle r="5" cx="230.89" cy="377.74" fill="#132e65"></circle><circle r="5" cx="238.34" cy="513.4" fill="#132e65"></circle><circle r="5" cx="202.26" cy="653.6" fill="#132e65"></circle><circle r="5" cx="369.25" cy="391.94" fill="#132e65"></circle><circle r="5" cx="404.13" cy="528.56" fill="#132e65"></circle><circle r="5" cx="388.29" cy="698.89" fill="#132e65"></circle><circle r="5" cx="540.24" cy="241.52" fill="#132e65"></circle><circle r="5" cx="523.98" cy="386.25" fill="#132e65"></circle><circle r="5" cx="541.08" cy="560.07" fill="#132e65"></circle><circle r="5" cx="527.51" cy="665.58" fill="#132e65"></circle><circle r="5" cx="692.55" cy="213.21" fill="#132e65"></circle><circle r="5" cx="694.45" cy="382.59" fill="#132e65"></circle><circle r="5" cx="651.05" cy="537.75" fill="#132e65"></circle><circle r="5" cx="638.16" cy="675.18" fill="#132e65"></circle><circle r="5" cx="852.01" cy="98.58" fill="#132e65"></circle><circle r="5" cx="822.87" cy="227.79" fill="#132e65"></circle><circle r="5" cx="792.79" cy="382.65" fill="#132e65"></circle><circle r="5" cx="813.07" cy="557.93" fill="#132e65"></circle><circle r="5" cx="787.6" cy="690.47" fill="#132e65"></circle><circle r="5" cx="1003.73" cy="80.73" fill="#132e65"></circle><circle r="5" cx="962.83" cy="212.05" fill="#132e65"></circle><circle r="5" cx="962.1" cy="360.26" fill="#132e65"></circle><circle r="5" cx="1011.19" cy="546.89" fill="#132e65"></circle><circle r="5" cx="963.62" cy="678.98" fill="#132e65"></circle><circle r="5" cx="1130.13" cy="-49.12" fill="#132e65"></circle><circle r="5" cx="1108.78" cy="74.2" fill="#132e65"></circle><circle r="5" cx="1153.78" cy="351.03" fill="#132e65"></circle><circle r="5" cx="1103.14" cy="522.67" fill="#132e65"></circle><circle r="5" cx="1112.98" cy="683.38" fill="#132e65"></circle><circle r="5" cx="1257.8" cy="-51.26" fill="#132e65"></circle><circle r="5" cx="1262.15" cy="64.91" fill="#132e65"></circle><circle r="5" cx="1272.05" cy="205.08" fill="#132e65"></circle><circle r="5" cx="1280.94" cy="395.85" fill="#132e65"></circle><circle r="5" cx="1271.19" cy="681.47" fill="#132e65"></circle><circle r="5" cx="1409.29" cy="-96.68" fill="#132e65"></circle><circle r="5" cx="1427.73" cy="258.44" fill="#132e65"></circle><circle r="5" cx="1438.26" cy="397.44" fill="#132e65"></circle><circle r="5" cx="1393.98" cy="560.18" fill="#132e65"></circle><circle r="5" cx="1431.22" cy="709.76" fill="#132e65"></circle><circle r="5" cx="1542.52" cy="-46.96" fill="#132e65"></circle><circle r="5" cx="1561.2" cy="62.12" fill="#132e65"></circle><circle r="5" cx="1577.94" cy="194.96" fill="#132e65"></circle><circle r="5" cx="1540.36" cy="396.44" fill="#132e65"></circle><circle r="5" cx="1581.9" cy="494.87" fill="#132e65"></circle><circle r="5" cx="1587.36" cy="665.73" fill="#132e65"></circle><path d="M99.41 538.85L99.41 538.85" stroke="hsl(228.5, 77.2%, 51.5%)" stroke-width="1.5"></path><path d="M99.41 538.85L234.73 511.03" stroke="hsl(228.5, 77.2%, 51.5%)" stroke-width="1.5"></path><path d="M99.41 538.85L103 696.37" stroke="hsl(228.5, 77.2%, 51.5%)" stroke-width="1.5"></path><path d="M99.41 538.85L224.31 694.43" stroke="hsl(228.5, 77.2%, 51.5%)" stroke-width="1.5"></path><path d="M99.41 538.85L-97.86 502.2" stroke="hsl(228.5, 77.2%, 51.5%)" stroke-width="1.5"></path><path d="M358.53 707.74L358.53 707.74" stroke="hsl(228.5, 77.2%, 51.5%)" stroke-width="1.5"></path><path d="M358.53 707.74L224.31 694.43" stroke="hsl(228.5, 77.2%, 51.5%)" stroke-width="1.5"></path><path d="M358.53 707.74L402.47 498.08" stroke="hsl(228.5, 77.2%, 51.5%)" stroke-width="1.5"></path><path d="M358.53 707.74L234.73 511.03" stroke="hsl(228.5, 77.2%, 51.5%)" stroke-width="1.5"></path><path d="M358.53 707.74L103 696.37" stroke="hsl(228.5, 77.2%, 51.5%)" stroke-width="1.5"></path><path d="M358.53 707.74L554.17 518.29" stroke="hsl(228.5, 77.2%, 51.5%)" stroke-width="1.5"></path><path d="M358.53 707.74L99.41 538.85" stroke="hsl(228.5, 77.2%, 51.5%)" stroke-width="1.5"></path><path d="M1238.1 -85.92L1238.1 -85.92" stroke="hsl(228.5, 77.2%, 51.5%)" stroke-width="1.5"></path><path d="M1238.1 -85.92L1296.72 58.12" stroke="hsl(228.5, 77.2%, 51.5%)" stroke-width="1.5"></path><path d="M1238.1 -85.92L1430.53 -83.11" stroke="hsl(228.5, 77.2%, 51.5%)" stroke-width="1.5"></path><path d="M1238.1 -85.92L1259.4 211.26" stroke="hsl(228.5, 77.2%, 51.5%)" stroke-width="1.5"></path><path d="M1238.1 -85.92L1159.5 211.67" stroke="hsl(228.5, 77.2%, 51.5%)" stroke-width="1.5"></path><path d="M1238.1 -85.92L1558.61 -69.5" stroke="hsl(228.5, 77.2%, 51.5%)" stroke-width="1.5"></path><path d="M1237.57 704.26L1237.57 704.26" stroke="hsl(228.5, 77.2%, 51.5%)" stroke-width="1.5"></path><path d="M1237.57 704.26L1152.03 696.62" stroke="hsl(228.5, 77.2%, 51.5%)" stroke-width="1.5"></path><path d="M1237.57 704.26L1410.59 688.81" stroke="hsl(228.5, 77.2%, 51.5%)" stroke-width="1.5"></path><path d="M1237.57 704.26L1247.99 516.7" stroke="hsl(228.5, 77.2%, 51.5%)" stroke-width="1.5"></path><path d="M1237.57 704.26L1124.76 520.47" stroke="hsl(228.5, 77.2%, 51.5%)" stroke-width="1.5"></path><path d="M1430.53 -83.11L1430.53 -83.11" stroke="hsl(228.5, 77.2%, 51.5%)" stroke-width="1.5"></path><path d="M1430.53 -83.11L1558.61 -69.5" stroke="hsl(228.5, 77.2%, 51.5%)" stroke-width="1.5"></path><path d="M-97.86 502.2L-97.86 502.2" stroke="hsl(228.5, 77.2%, 51.5%)" stroke-width="1.5"></path><path d="M-97.86 502.2L-44.79 696.68" stroke="hsl(228.5, 77.2%, 51.5%)" stroke-width="1.5"></path><path d="M-97.86 502.2L103 696.37" stroke="hsl(228.5, 77.2%, 51.5%)" stroke-width="1.5"></path><path d="M-44.79 696.68L-44.79 696.68" stroke="hsl(228.5, 77.2%, 51.5%)" stroke-width="1.5"></path><path d="M-44.79 696.68L103 696.37" stroke="hsl(228.5, 77.2%, 51.5%)" stroke-width="1.5"></path><path d="M-44.79 696.68L99.41 538.85" stroke="hsl(228.5, 77.2%, 51.5%)" stroke-width="1.5"></path><path d="M-44.79 696.68L224.31 694.43" stroke="hsl(228.5, 77.2%, 51.5%)" stroke-width="1.5"></path><path d="M-44.79 696.68L234.73 511.03" stroke="hsl(228.5, 77.2%, 51.5%)" stroke-width="1.5"></path><path d="M103 696.37L103 696.37" stroke="hsl(228.5, 77.2%, 51.5%)" stroke-width="1.5"></path><path d="M103 696.37L224.31 694.43" stroke="hsl(228.5, 77.2%, 51.5%)" stroke-width="1.5"></path><path d="M103 696.37L234.73 511.03" stroke="hsl(228.5, 77.2%, 51.5%)" stroke-width="1.5"></path><path d="M234.73 511.03L234.73 511.03" stroke="hsl(228.5, 77.2%, 51.5%)" stroke-width="1.5"></path><path d="M234.73 511.03L402.47 498.08" stroke="hsl(228.5, 77.2%, 51.5%)" stroke-width="1.5"></path><path d="M234.73 511.03L224.31 694.43" stroke="hsl(228.5, 77.2%, 51.5%)" stroke-width="1.5"></path><path d="M224.31 694.43L224.31 694.43" stroke="hsl(228.5, 77.2%, 51.5%)" stroke-width="1.5"></path><path d="M224.31 694.43L402.47 498.08" stroke="hsl(228.5, 77.2%, 51.5%)" stroke-width="1.5"></path><path d="M402.47 498.08L402.47 498.08" stroke="hsl(228.5, 77.2%, 51.5%)" stroke-width="1.5"></path><path d="M402.47 498.08L554.17 518.29" stroke="hsl(228.5, 77.2%, 51.5%)" stroke-width="1.5"></path><path d="M554.17 518.29L554.17 518.29" stroke="hsl(228.5, 77.2%, 51.5%)" stroke-width="1.5"></path><path d="M554.17 518.29L682.38 363.96" stroke="hsl(228.5, 77.2%, 51.5%)" stroke-width="1.5"></path><path d="M554.17 518.29L703.37 699.03" stroke="hsl(228.5, 77.2%, 51.5%)" stroke-width="1.5"></path><path d="M682.38 363.96L682.38 363.96" stroke="hsl(228.5, 77.2%, 51.5%)" stroke-width="1.5"></path><path d="M682.38 363.96L837.32 545.17" stroke="hsl(228.5, 77.2%, 51.5%)" stroke-width="1.5"></path><path d="M703.37 699.03L703.37 699.03" stroke="hsl(228.5, 77.2%, 51.5%)" stroke-width="1.5"></path><path d="M703.37 699.03L837.32 545.17" stroke="hsl(228.5, 77.2%, 51.5%)" stroke-width="1.5"></path><path d="M837.32 545.17L837.32 545.17" stroke="hsl(228.5, 77.2%, 51.5%)" stroke-width="1.5"></path><path d="M837.32 545.17L1004.43 521.43" stroke="hsl(228.5, 77.2%, 51.5%)" stroke-width="1.5"></path><path d="M837.32 545.17L981.1 686.69" stroke="hsl(228.5, 77.2%, 51.5%)" stroke-width="1.5"></path><path d="M837.32 545.17L947.24 356.51" stroke="hsl(228.5, 77.2%, 51.5%)" stroke-width="1.5"></path><path d="M1002.28 217.55L1002.28 217.55" stroke="hsl(228.5, 77.2%, 51.5%)" stroke-width="1.5"></path><path d="M1002.28 217.55L947.24 356.51" stroke="hsl(228.5, 77.2%, 51.5%)" stroke-width="1.5"></path><path d="M1002.28 217.55L1159.5 211.67" stroke="hsl(228.5, 77.2%, 51.5%)" stroke-width="1.5"></path><path d="M947.24 356.51L947.24 356.51" stroke="hsl(228.5, 77.2%, 51.5%)" stroke-width="1.5"></path><path d="M947.24 356.51L1004.43 521.43" stroke="hsl(228.5, 77.2%, 51.5%)" stroke-width="1.5"></path><path d="M947.24 356.51L1156.73 359.03" stroke="hsl(228.5, 77.2%, 51.5%)" stroke-width="1.5"></path><path d="M947.24 356.51L1124.76 520.47" stroke="hsl(228.5, 77.2%, 51.5%)" stroke-width="1.5"></path><path d="M947.24 356.51L1159.5 211.67" stroke="hsl(228.5, 77.2%, 51.5%)" stroke-width="1.5"></path><path d="M1004.43 521.43L1004.43 521.43" stroke="hsl(228.5, 77.2%, 51.5%)" stroke-width="1.5"></path><path d="M1004.43 521.43L1124.76 520.47" stroke="hsl(228.5, 77.2%, 51.5%)" stroke-width="1.5"></path><path d="M1004.43 521.43L981.1 686.69" stroke="hsl(228.5, 77.2%, 51.5%)" stroke-width="1.5"></path><path d="M981.1 686.69L981.1 686.69" stroke="hsl(228.5, 77.2%, 51.5%)" stroke-width="1.5"></path><path d="M981.1 686.69L1152.03 696.62" stroke="hsl(228.5, 77.2%, 51.5%)" stroke-width="1.5"></path><path d="M1159.5 211.67L1159.5 211.67" stroke="hsl(228.5, 77.2%, 51.5%)" stroke-width="1.5"></path><path d="M1159.5 211.67L1259.4 211.26" stroke="hsl(228.5, 77.2%, 51.5%)" stroke-width="1.5"></path><path d="M1159.5 211.67L1156.73 359.03" stroke="hsl(228.5, 77.2%, 51.5%)" stroke-width="1.5"></path><path d="M1159.5 211.67L1296.72 58.12" stroke="hsl(228.5, 77.2%, 51.5%)" stroke-width="1.5"></path><path d="M1156.73 359.03L1156.73 359.03" stroke="hsl(228.5, 77.2%, 51.5%)" stroke-width="1.5"></path><path d="M1156.73 359.03L1124.76 520.47" stroke="hsl(228.5, 77.2%, 51.5%)" stroke-width="1.5"></path><path d="M1156.73 359.03L1259.4 211.26" stroke="hsl(228.5, 77.2%, 51.5%)" stroke-width="1.5"></path><path d="M1156.73 359.03L1247.99 516.7" stroke="hsl(228.5, 77.2%, 51.5%)" stroke-width="1.5"></path><path d="M1156.73 359.03L1002.28 217.55" stroke="hsl(228.5, 77.2%, 51.5%)" stroke-width="1.5"></path><path d="M1124.76 520.47L1124.76 520.47" stroke="hsl(228.5, 77.2%, 51.5%)" stroke-width="1.5"></path><path d="M1124.76 520.47L1247.99 516.7" stroke="hsl(228.5, 77.2%, 51.5%)" stroke-width="1.5"></path><path d="M1124.76 520.47L1152.03 696.62" stroke="hsl(228.5, 77.2%, 51.5%)" stroke-width="1.5"></path><path d="M1124.76 520.47L981.1 686.69" stroke="hsl(228.5, 77.2%, 51.5%)" stroke-width="1.5"></path><path d="M1152.03 696.62L1152.03 696.62" stroke="hsl(228.5, 77.2%, 51.5%)" stroke-width="1.5"></path><path d="M1296.72 58.12L1296.72 58.12" stroke="hsl(228.5, 77.2%, 51.5%)" stroke-width="1.5"></path><path d="M1296.72 58.12L1259.4 211.26" stroke="hsl(228.5, 77.2%, 51.5%)" stroke-width="1.5"></path><path d="M1259.4 211.26L1259.4 211.26" stroke="hsl(228.5, 77.2%, 51.5%)" stroke-width="1.5"></path><path d="M1247.99 516.7L1247.99 516.7" stroke="hsl(228.5, 77.2%, 51.5%)" stroke-width="1.5"></path><path d="M1247.99 516.7L1417.59 508.83" stroke="hsl(228.5, 77.2%, 51.5%)" stroke-width="1.5"></path><path d="M1455.39 220.68L1455.39 220.68" stroke="hsl(228.5, 77.2%, 51.5%)" stroke-width="1.5"></path><path d="M1455.39 220.68L1547.01 253.97" stroke="hsl(228.5, 77.2%, 51.5%)" stroke-width="1.5"></path><path d="M1455.39 220.68L1556.61 106.94" stroke="hsl(228.5, 77.2%, 51.5%)" stroke-width="1.5"></path><path d="M1455.39 220.68L1565.81 374.17" stroke="hsl(228.5, 77.2%, 51.5%)" stroke-width="1.5"></path><path d="M1455.39 220.68L1259.4 211.26" stroke="hsl(228.5, 77.2%, 51.5%)" stroke-width="1.5"></path><path d="M1455.39 220.68L1296.72 58.12" stroke="hsl(228.5, 77.2%, 51.5%)" stroke-width="1.5"></path><path d="M1455.39 220.68L1543.12 494.82" stroke="hsl(228.5, 77.2%, 51.5%)" stroke-width="1.5"></path><path d="M1417.59 508.83L1417.59 508.83" stroke="hsl(228.5, 77.2%, 51.5%)" stroke-width="1.5"></path><path d="M1417.59 508.83L1543.12 494.82" stroke="hsl(228.5, 77.2%, 51.5%)" stroke-width="1.5"></path><path d="M1417.59 508.83L1410.59 688.81" stroke="hsl(228.5, 77.2%, 51.5%)" stroke-width="1.5"></path><path d="M1410.59 688.81L1410.59 688.81" stroke="hsl(228.5, 77.2%, 51.5%)" stroke-width="1.5"></path><path d="M1410.59 688.81L1579.81 666.37" stroke="hsl(228.5, 77.2%, 51.5%)" stroke-width="1.5"></path><path d="M1558.61 -69.5L1558.61 -69.5" stroke="hsl(228.5, 77.2%, 51.5%)" stroke-width="1.5"></path><path d="M1558.61 -69.5L1556.61 106.94" stroke="hsl(228.5, 77.2%, 51.5%)" stroke-width="1.5"></path><path d="M1558.61 -69.5L1296.72 58.12" stroke="hsl(228.5, 77.2%, 51.5%)" stroke-width="1.5"></path><path d="M1558.61 -69.5L1455.39 220.68" stroke="hsl(228.5, 77.2%, 51.5%)" stroke-width="1.5"></path><path d="M1558.61 -69.5L1547.01 253.97" stroke="hsl(228.5, 77.2%, 51.5%)" stroke-width="1.5"></path><path d="M1556.61 106.94L1556.61 106.94" stroke="hsl(228.5, 77.2%, 51.5%)" stroke-width="1.5"></path><path d="M1556.61 106.94L1547.01 253.97" stroke="hsl(228.5, 77.2%, 51.5%)" stroke-width="1.5"></path><path d="M1556.61 106.94L1430.53 -83.11" stroke="hsl(228.5, 77.2%, 51.5%)" stroke-width="1.5"></path><path d="M1556.61 106.94L1296.72 58.12" stroke="hsl(228.5, 77.2%, 51.5%)" stroke-width="1.5"></path><path d="M1556.61 106.94L1565.81 374.17" stroke="hsl(228.5, 77.2%, 51.5%)" stroke-width="1.5"></path><path d="M1547.01 253.97L1547.01 253.97" stroke="hsl(228.5, 77.2%, 51.5%)" stroke-width="1.5"></path><path d="M1547.01 253.97L1565.81 374.17" stroke="hsl(228.5, 77.2%, 51.5%)" stroke-width="1.5"></path><path d="M1547.01 253.97L1543.12 494.82" stroke="hsl(228.5, 77.2%, 51.5%)" stroke-width="1.5"></path><path d="M1547.01 253.97L1417.59 508.83" stroke="hsl(228.5, 77.2%, 51.5%)" stroke-width="1.5"></path><path d="M1565.81 374.17L1565.81 374.17" stroke="hsl(228.5, 77.2%, 51.5%)" stroke-width="1.5"></path><path d="M1565.81 374.17L1543.12 494.82" stroke="hsl(228.5, 77.2%, 51.5%)" stroke-width="1.5"></path><path d="M1565.81 374.17L1417.59 508.83" stroke="hsl(228.5, 77.2%, 51.5%)" stroke-width="1.5"></path><path d="M1543.12 494.82L1543.12 494.82" stroke="hsl(228.5, 77.2%, 51.5%)" stroke-width="1.5"></path><path d="M1543.12 494.82L1579.81 666.37" stroke="hsl(228.5, 77.2%, 51.5%)" stroke-width="1.5"></path><path d="M1543.12 494.82L1410.59 688.81" stroke="hsl(228.5, 77.2%, 51.5%)" stroke-width="1.5"></path><path d="M1579.81 666.37L1579.81 666.37" stroke="hsl(228.5, 77.2%, 51.5%)" stroke-width="1.5"></path><circle r="25" cx="99.41" cy="538.85" fill="url(#SvgjsRadialGradient1059)"></circle><circle r="25" cx="358.53" cy="707.74" fill="url(#SvgjsRadialGradient1059)"></circle><circle r="25" cx="1238.1" cy="-85.92" fill="url(#SvgjsRadialGradient1059)"></circle><circle r="25" cx="1237.57" cy="704.26" fill="url(#SvgjsRadialGradient1059)"></circle><circle r="25" cx="1430.53" cy="-83.11" fill="url(#SvgjsRadialGradient1059)"></circle><circle r="5" cx="-97.86" cy="502.2" fill="#8b9ad9"></circle><circle r="5" cx="-44.79" cy="696.68" fill="#8b9ad9"></circle><circle r="5" cx="103" cy="696.37" fill="#8b9ad9"></circle><circle r="5" cx="234.73" cy="511.03" fill="#8b9ad9"></circle><circle r="5" cx="224.31" cy="694.43" fill="#8b9ad9"></circle><circle r="5" cx="402.47" cy="498.08" fill="#8b9ad9"></circle><circle r="5" cx="554.17" cy="518.29" fill="#8b9ad9"></circle><circle r="5" cx="682.38" cy="363.96" fill="#8b9ad9"></circle><circle r="5" cx="703.37" cy="699.03" fill="#8b9ad9"></circle><circle r="5" cx="837.32" cy="545.17" fill="#8b9ad9"></circle><circle r="5" cx="1002.28" cy="217.55" fill="#8b9ad9"></circle><circle r="5" cx="947.24" cy="356.51" fill="#8b9ad9"></circle><circle r="5" cx="1004.43" cy="521.43" fill="#8b9ad9"></circle><circle r="5" cx="981.1" cy="686.69" fill="#8b9ad9"></circle><circle r="5" cx="1159.5" cy="211.67" fill="#8b9ad9"></circle><circle r="5" cx="1156.73" cy="359.03" fill="#8b9ad9"></circle><circle r="5" cx="1124.76" cy="520.47" fill="#8b9ad9"></circle><circle r="5" cx="1152.03" cy="696.62" fill="#8b9ad9"></circle><circle r="5" cx="1296.72" cy="58.12" fill="#8b9ad9"></circle><circle r="5" cx="1259.4" cy="211.26" fill="#8b9ad9"></circle><circle r="5" cx="1247.99" cy="516.7" fill="#8b9ad9"></circle><circle r="5" cx="1455.39" cy="220.68" fill="#8b9ad9"></circle><circle r="5" cx="1417.59" cy="508.83" fill="#8b9ad9"></circle><circle r="5" cx="1410.59" cy="688.81" fill="#8b9ad9"></circle><circle r="5" cx="1558.61" cy="-69.5" fill="#8b9ad9"></circle><circle r="5" cx="1556.61" cy="106.94" fill="#8b9ad9"></circle><circle r="5" cx="1547.01" cy="253.97" fill="#8b9ad9"></circle><circle r="5" cx="1565.81" cy="374.17" fill="#8b9ad9"></circle><circle r="5" cx="1543.12" cy="494.82" fill="#8b9ad9"></circle><circle r="5" cx="1579.81" cy="666.37" fill="#8b9ad9"></circle></g><defs><mask id="SvgjsMask1057"><rect width="1440" height="500" fill="#ffffff"></rect></mask><linearGradient x1="16.32%" y1="-47%" x2="83.68%" y2="147%" gradientUnits="userSpaceOnUse" id="SvgjsLinearGradient1058"><stop stop-color="#0e2a47" offset="0"></stop><stop stop-color="#00459e" offset="1"></stop></linearGradient><radialGradient id="SvgjsRadialGradient1059"><stop stop-color="#ffffff" offset="0.1"></stop><stop stop-color="#1735b3" offset="0.2"></stop><stop stop-color="rgba(23, 53, 179, 0)" offset="1"></stop></radialGradient></defs></svg>