<svg xmlns="http://www.w3.org/2000/svg" version="1.1" xmlns:xlink="http://www.w3.org/1999/xlink" xmlns:svgjs="http://svgjs.com/svgjs" width="1440" height="500" preserveAspectRatio="none" viewBox="0 0 1440 500"><g mask="url(&quot;#SvgjsMask1066&quot;)" fill="none"><rect width="1440" height="500" x="0" y="0" fill="url(#SvgjsLinearGradient1067)"></rect><path d="M-77.07 387.95L-77.07 387.95" stroke="#132e65" stroke-width="1.5"></path><path d="M-77.07 387.95L42.91 369.58" stroke="#132e65" stroke-width="1.5"></path><path d="M-77.07 387.95L-75.41 527.41" stroke="#132e65" stroke-width="1.5"></path><path d="M-77.07 387.95L59.24 528.89" stroke="#132e65" stroke-width="1.5"></path><path d="M-77.07 387.95L197.45 367.46" stroke="#132e65" stroke-width="1.5"></path><path d="M-77.07 387.95L-56.3 685.43" stroke="#132e65" stroke-width="1.5"></path><path d="M-77.07 387.95L81.33 645.31" stroke="#132e65" stroke-width="1.5"></path><path d="M-75.41 527.41L-75.41 527.41" stroke="#132e65" stroke-width="1.5"></path><path d="M-75.41 527.41L59.24 528.89" stroke="#132e65" stroke-width="1.5"></path><path d="M-75.41 527.41L-56.3 685.43" stroke="#132e65" stroke-width="1.5"></path><path d="M-75.41 527.41L81.33 645.31" stroke="#132e65" stroke-width="1.5"></path><path d="M-75.41 527.41L42.91 369.58" stroke="#132e65" stroke-width="1.5"></path><path d="M-75.41 527.41L194.74 554.32" stroke="#132e65" stroke-width="1.5"></path><path d="M-56.3 685.43L-56.3 685.43" stroke="#132e65" stroke-width="1.5"></path><path d="M-56.3 685.43L81.33 645.31" stroke="#132e65" stroke-width="1.5"></path><path d="M42.91 369.58L42.91 369.58" stroke="#132e65" stroke-width="1.5"></path><path d="M42.91 369.58L197.45 367.46" stroke="#132e65" stroke-width="1.5"></path><path d="M59.24 528.89L59.24 528.89" stroke="#132e65" stroke-width="1.5"></path><path d="M59.24 528.89L81.33 645.31" stroke="#132e65" stroke-width="1.5"></path><path d="M59.24 528.89L194.74 554.32" stroke="#132e65" stroke-width="1.5"></path><path d="M81.33 645.31L81.33 645.31" stroke="#132e65" stroke-width="1.5"></path><path d="M81.33 645.31L194.74 554.32" stroke="#132e65" stroke-width="1.5"></path><path d="M197.45 367.46L197.45 367.46" stroke="#132e65" stroke-width="1.5"></path><path d="M197.45 367.46L363.76 380.89" stroke="#132e65" stroke-width="1.5"></path><path d="M197.45 367.46L194.74 554.32" stroke="#132e65" stroke-width="1.5"></path><path d="M197.45 367.46L59.24 528.89" stroke="#132e65" stroke-width="1.5"></path><path d="M194.74 554.32L194.74 554.32" stroke="#132e65" stroke-width="1.5"></path><path d="M363.76 380.89L363.76 380.89" stroke="#132e65" stroke-width="1.5"></path><path d="M363.76 380.89L398.3 533.66" stroke="#132e65" stroke-width="1.5"></path><path d="M363.76 380.89L516.1 246.73" stroke="#132e65" stroke-width="1.5"></path><path d="M363.76 380.89L498.23 553.3" stroke="#132e65" stroke-width="1.5"></path><path d="M363.76 380.89L194.74 554.32" stroke="#132e65" stroke-width="1.5"></path><path d="M363.76 380.89L666.08 374.74" stroke="#132e65" stroke-width="1.5"></path><path d="M398.3 533.66L398.3 533.66" stroke="#132e65" stroke-width="1.5"></path><path d="M398.3 533.66L498.23 553.3" stroke="#132e65" stroke-width="1.5"></path><path d="M398.3 533.66L379.13 711.6" stroke="#132e65" stroke-width="1.5"></path><path d="M379.13 711.6L379.13 711.6" stroke="#132e65" stroke-width="1.5"></path><path d="M379.13 711.6L552.42 704.8" stroke="#132e65" stroke-width="1.5"></path><path d="M379.13 711.6L498.23 553.3" stroke="#132e65" stroke-width="1.5"></path><path d="M516.1 246.73L516.1 246.73" stroke="#132e65" stroke-width="1.5"></path><path d="M516.1 246.73L701.93 221.62" stroke="#132e65" stroke-width="1.5"></path><path d="M516.1 246.73L666.08 374.74" stroke="#132e65" stroke-width="1.5"></path><path d="M516.1 246.73L498.23 553.3" stroke="#132e65" stroke-width="1.5"></path><path d="M516.1 246.73L398.3 533.66" stroke="#132e65" stroke-width="1.5"></path><path d="M516.1 246.73L680.89 538.91" stroke="#132e65" stroke-width="1.5"></path><path d="M498.23 553.3L498.23 553.3" stroke="#132e65" stroke-width="1.5"></path><path d="M498.23 553.3L552.42 704.8" stroke="#132e65" stroke-width="1.5"></path><path d="M498.23 553.3L680.89 538.91" stroke="#132e65" stroke-width="1.5"></path><path d="M552.42 704.8L552.42 704.8" stroke="#132e65" stroke-width="1.5"></path><path d="M552.42 704.8L673.06 677.73" stroke="#132e65" stroke-width="1.5"></path><path d="M701.93 221.62L701.93 221.62" stroke="#132e65" stroke-width="1.5"></path><path d="M701.93 221.62L666.08 374.74" stroke="#132e65" stroke-width="1.5"></path><path d="M701.93 221.62L860.71 207.25" stroke="#132e65" stroke-width="1.5"></path><path d="M701.93 221.62L847.95 90.16" stroke="#132e65" stroke-width="1.5"></path><path d="M701.93 221.62L835.22 387.93" stroke="#132e65" stroke-width="1.5"></path><path d="M701.93 221.62L993.92 189.06" stroke="#132e65" stroke-width="1.5"></path><path d="M666.08 374.74L666.08 374.74" stroke="#132e65" stroke-width="1.5"></path><path d="M666.08 374.74L680.89 538.91" stroke="#132e65" stroke-width="1.5"></path><path d="M666.08 374.74L835.22 387.93" stroke="#132e65" stroke-width="1.5"></path><path d="M666.08 374.74L801.16 560.2" stroke="#132e65" stroke-width="1.5"></path><path d="M666.08 374.74L498.23 553.3" stroke="#132e65" stroke-width="1.5"></path><path d="M680.89 538.91L680.89 538.91" stroke="#132e65" stroke-width="1.5"></path><path d="M680.89 538.91L801.16 560.2" stroke="#132e65" stroke-width="1.5"></path><path d="M680.89 538.91L673.06 677.73" stroke="#132e65" stroke-width="1.5"></path><path d="M673.06 677.73L673.06 677.73" stroke="#132e65" stroke-width="1.5"></path><path d="M673.06 677.73L810.58 674.57" stroke="#132e65" stroke-width="1.5"></path><path d="M673.06 677.73L801.16 560.2" stroke="#132e65" stroke-width="1.5"></path><path d="M673.06 677.73L498.23 553.3" stroke="#132e65" stroke-width="1.5"></path><path d="M673.06 677.73L379.13 711.6" stroke="#132e65" stroke-width="1.5"></path><path d="M847.95 90.16L847.95 90.16" stroke="#132e65" stroke-width="1.5"></path><path d="M847.95 90.16L860.71 207.25" stroke="#132e65" stroke-width="1.5"></path><path d="M847.95 90.16L993.92 189.06" stroke="#132e65" stroke-width="1.5"></path><path d="M847.95 90.16L965.48 -64.98" stroke="#132e65" stroke-width="1.5"></path><path d="M860.71 207.25L860.71 207.25" stroke="#132e65" stroke-width="1.5"></path><path d="M860.71 207.25L993.92 189.06" stroke="#132e65" stroke-width="1.5"></path><path d="M835.22 387.93L835.22 387.93" stroke="#132e65" stroke-width="1.5"></path><path d="M835.22 387.93L986.34 383.76" stroke="#132e65" stroke-width="1.5"></path><path d="M835.22 387.93L801.16 560.2" stroke="#132e65" stroke-width="1.5"></path><path d="M835.22 387.93L860.71 207.25" stroke="#132e65" stroke-width="1.5"></path><path d="M835.22 387.93L970.34 542.2" stroke="#132e65" stroke-width="1.5"></path><path d="M801.16 560.2L801.16 560.2" stroke="#132e65" stroke-width="1.5"></path><path d="M801.16 560.2L810.58 674.57" stroke="#132e65" stroke-width="1.5"></path><path d="M801.16 560.2L970.34 542.2" stroke="#132e65" stroke-width="1.5"></path><path d="M810.58 674.57L810.58 674.57" stroke="#132e65" stroke-width="1.5"></path><path d="M810.58 674.57L680.89 538.91" stroke="#132e65" stroke-width="1.5"></path><path d="M810.58 674.57L1007.72 700.1" stroke="#132e65" stroke-width="1.5"></path><path d="M810.58 674.57L970.34 542.2" stroke="#132e65" stroke-width="1.5"></path><path d="M810.58 674.57L552.42 704.8" stroke="#132e65" stroke-width="1.5"></path><path d="M965.48 -64.98L965.48 -64.98" stroke="#132e65" stroke-width="1.5"></path><path d="M965.48 -64.98L1134.66 -79.82" stroke="#132e65" stroke-width="1.5"></path><path d="M965.48 -64.98L1137.8 51.19" stroke="#132e65" stroke-width="1.5"></path><path d="M993.92 189.06L993.92 189.06" stroke="#132e65" stroke-width="1.5"></path><path d="M986.34 383.76L986.34 383.76" stroke="#132e65" stroke-width="1.5"></path><path d="M970.34 542.2L970.34 542.2" stroke="#132e65" stroke-width="1.5"></path><path d="M970.34 542.2L986.34 383.76" stroke="#132e65" stroke-width="1.5"></path><path d="M970.34 542.2L1007.72 700.1" stroke="#132e65" stroke-width="1.5"></path><path d="M1007.72 700.1L1007.72 700.1" stroke="#132e65" stroke-width="1.5"></path><path d="M1007.72 700.1L1156.81 705.83" stroke="#132e65" stroke-width="1.5"></path><path d="M1007.72 700.1L801.16 560.2" stroke="#132e65" stroke-width="1.5"></path><path d="M1007.72 700.1L1267.22 667.04" stroke="#132e65" stroke-width="1.5"></path><path d="M1134.66 -79.82L1134.66 -79.82" stroke="#132e65" stroke-width="1.5"></path><path d="M1134.66 -79.82L1137.8 51.19" stroke="#132e65" stroke-width="1.5"></path><path d="M1134.66 -79.82L1306.86 -80.95" stroke="#132e65" stroke-width="1.5"></path><path d="M1137.8 51.19L1137.8 51.19" stroke="#132e65" stroke-width="1.5"></path><path d="M1160.19 260.05L1160.19 260.05" stroke="#132e65" stroke-width="1.5"></path><path d="M1160.19 260.05L1281.65 193.44" stroke="#132e65" stroke-width="1.5"></path><path d="M1160.19 260.05L993.92 189.06" stroke="#132e65" stroke-width="1.5"></path><path d="M1160.19 260.05L1297.33 384.49" stroke="#132e65" stroke-width="1.5"></path><path d="M1160.19 260.05L1137.8 51.19" stroke="#132e65" stroke-width="1.5"></path><path d="M1160.19 260.05L986.34 383.76" stroke="#132e65" stroke-width="1.5"></path><path d="M1160.19 260.05L1429.58 207.47" stroke="#132e65" stroke-width="1.5"></path><path d="M1156.81 705.83L1156.81 705.83" stroke="#132e65" stroke-width="1.5"></path><path d="M1156.81 705.83L1267.22 667.04" stroke="#132e65" stroke-width="1.5"></path><path d="M1156.81 705.83L1296 541.63" stroke="#132e65" stroke-width="1.5"></path><path d="M1156.81 705.83L970.34 542.2" stroke="#132e65" stroke-width="1.5"></path><path d="M1156.81 705.83L1419.35 685.44" stroke="#132e65" stroke-width="1.5"></path><path d="M1306.86 -80.95L1306.86 -80.95" stroke="#132e65" stroke-width="1.5"></path><path d="M1306.86 -80.95L1413.26 -77.35" stroke="#132e65" stroke-width="1.5"></path><path d="M1281.65 193.44L1281.65 193.44" stroke="#132e65" stroke-width="1.5"></path><path d="M1281.65 193.44L1429.58 207.47" stroke="#132e65" stroke-width="1.5"></path><path d="M1281.65 193.44L1394.1 82.22" stroke="#132e65" stroke-width="1.5"></path><path d="M1281.65 193.44L1297.33 384.49" stroke="#132e65" stroke-width="1.5"></path><path d="M1281.65 193.44L1137.8 51.19" stroke="#132e65" stroke-width="1.5"></path><path d="M1281.65 193.44L1425.76 401.18" stroke="#132e65" stroke-width="1.5"></path><path d="M1297.33 384.49L1297.33 384.49" stroke="#132e65" stroke-width="1.5"></path><path d="M1297.33 384.49L1425.76 401.18" stroke="#132e65" stroke-width="1.5"></path><path d="M1297.33 384.49L1296 541.63" stroke="#132e65" stroke-width="1.5"></path><path d="M1297.33 384.49L1438.79 502.78" stroke="#132e65" stroke-width="1.5"></path><path d="M1296 541.63L1296 541.63" stroke="#132e65" stroke-width="1.5"></path><path d="M1296 541.63L1267.22 667.04" stroke="#132e65" stroke-width="1.5"></path><path d="M1296 541.63L1438.79 502.78" stroke="#132e65" stroke-width="1.5"></path><path d="M1296 541.63L1419.35 685.44" stroke="#132e65" stroke-width="1.5"></path><path d="M1296 541.63L1425.76 401.18" stroke="#132e65" stroke-width="1.5"></path><path d="M1267.22 667.04L1267.22 667.04" stroke="#132e65" stroke-width="1.5"></path><path d="M1413.26 -77.35L1413.26 -77.35" stroke="#132e65" stroke-width="1.5"></path><path d="M1413.26 -77.35L1394.1 82.22" stroke="#132e65" stroke-width="1.5"></path><path d="M1413.26 -77.35L1587.06 -85.24" stroke="#132e65" stroke-width="1.5"></path><path d="M1394.1 82.22L1394.1 82.22" stroke="#132e65" stroke-width="1.5"></path><path d="M1394.1 82.22L1429.58 207.47" stroke="#132e65" stroke-width="1.5"></path><path d="M1429.58 207.47L1429.58 207.47" stroke="#132e65" stroke-width="1.5"></path><path d="M1429.58 207.47L1610.55 260.43" stroke="#132e65" stroke-width="1.5"></path><path d="M1429.58 207.47L1425.76 401.18" stroke="#132e65" stroke-width="1.5"></path><path d="M1429.58 207.47L1574.11 338.28" stroke="#132e65" stroke-width="1.5"></path><path d="M1425.76 401.18L1425.76 401.18" stroke="#132e65" stroke-width="1.5"></path><path d="M1425.76 401.18L1438.79 502.78" stroke="#132e65" stroke-width="1.5"></path><path d="M1438.79 502.78L1438.79 502.78" stroke="#132e65" stroke-width="1.5"></path><path d="M1438.79 502.78L1582.73 506.46" stroke="#132e65" stroke-width="1.5"></path><path d="M1438.79 502.78L1419.35 685.44" stroke="#132e65" stroke-width="1.5"></path><path d="M1438.79 502.78L1574.11 338.28" stroke="#132e65" stroke-width="1.5"></path><path d="M1419.35 685.44L1419.35 685.44" stroke="#132e65" stroke-width="1.5"></path><path d="M1419.35 685.44L1267.22 667.04" stroke="#132e65" stroke-width="1.5"></path><path d="M1419.35 685.44L1604.98 672.99" stroke="#132e65" stroke-width="1.5"></path><path d="M1587.06 -85.24L1587.06 -85.24" stroke="#132e65" stroke-width="1.5"></path><path d="M1587.06 -85.24L1579.99 43.6" stroke="#132e65" stroke-width="1.5"></path><path d="M1587.06 -85.24L1394.1 82.22" stroke="#132e65" stroke-width="1.5"></path><path d="M1587.06 -85.24L1306.86 -80.95" stroke="#132e65" stroke-width="1.5"></path><path d="M1587.06 -85.24L1429.58 207.47" stroke="#132e65" stroke-width="1.5"></path><path d="M1579.99 43.6L1579.99 43.6" stroke="#132e65" stroke-width="1.5"></path><path d="M1579.99 43.6L1394.1 82.22" stroke="#132e65" stroke-width="1.5"></path><path d="M1579.99 43.6L1413.26 -77.35" stroke="#132e65" stroke-width="1.5"></path><path d="M1610.55 260.43L1610.55 260.43" stroke="#132e65" stroke-width="1.5"></path><path d="M1610.55 260.43L1574.11 338.28" stroke="#132e65" stroke-width="1.5"></path><path d="M1610.55 260.43L1579.99 43.6" stroke="#132e65" stroke-width="1.5"></path><path d="M1610.55 260.43L1425.76 401.18" stroke="#132e65" stroke-width="1.5"></path><path d="M1574.11 338.28L1574.11 338.28" stroke="#132e65" stroke-width="1.5"></path><path d="M1574.11 338.28L1425.76 401.18" stroke="#132e65" stroke-width="1.5"></path><path d="M1574.11 338.28L1582.73 506.46" stroke="#132e65" stroke-width="1.5"></path><path d="M1582.73 506.46L1582.73 506.46" stroke="#132e65" stroke-width="1.5"></path><path d="M1582.73 506.46L1604.98 672.99" stroke="#132e65" stroke-width="1.5"></path><path d="M1582.73 506.46L1425.76 401.18" stroke="#132e65" stroke-width="1.5"></path><path d="M1582.73 506.46L1419.35 685.44" stroke="#132e65" stroke-width="1.5"></path><path d="M1582.73 506.46L1610.55 260.43" stroke="#132e65" stroke-width="1.5"></path><path d="M1604.98 672.99L1604.98 672.99" stroke="#132e65" stroke-width="1.5"></path><circle r="5" cx="-77.07" cy="387.95" fill="#132e65"></circle><circle r="5" cx="-75.41" cy="527.41" fill="#132e65"></circle><circle r="5" cx="-56.3" cy="685.43" fill="#132e65"></circle><circle r="5" cx="42.91" cy="369.58" fill="#132e65"></circle><circle r="5" cx="59.24" cy="528.89" fill="#132e65"></circle><circle r="5" cx="81.33" cy="645.31" fill="#132e65"></circle><circle r="5" cx="197.45" cy="367.46" fill="#132e65"></circle><circle r="5" cx="194.74" cy="554.32" fill="#132e65"></circle><circle r="5" cx="363.76" cy="380.89" fill="#132e65"></circle><circle r="5" cx="398.3" cy="533.66" fill="#132e65"></circle><circle r="5" cx="379.13" cy="711.6" fill="#132e65"></circle><circle r="5" cx="516.1" cy="246.73" fill="#132e65"></circle><circle r="5" cx="498.23" cy="553.3" fill="#132e65"></circle><circle r="5" cx="552.42" cy="704.8" fill="#132e65"></circle><circle r="5" cx="701.93" cy="221.62" fill="#132e65"></circle><circle r="5" cx="666.08" cy="374.74" fill="#132e65"></circle><circle r="5" cx="680.89" cy="538.91" fill="#132e65"></circle><circle r="5" cx="673.06" cy="677.73" fill="#132e65"></circle><circle r="5" cx="847.95" cy="90.16" fill="#132e65"></circle><circle r="5" cx="860.71" cy="207.25" fill="#132e65"></circle><circle r="5" cx="835.22" cy="387.93" fill="#132e65"></circle><circle r="5" cx="801.16" cy="560.2" fill="#132e65"></circle><circle r="5" cx="810.58" cy="674.57" fill="#132e65"></circle><circle r="5" cx="965.48" cy="-64.98" fill="#132e65"></circle><circle r="5" cx="993.92" cy="189.06" fill="#132e65"></circle><circle r="5" cx="986.34" cy="383.76" fill="#132e65"></circle><circle r="5" cx="970.34" cy="542.2" fill="#132e65"></circle><circle r="5" cx="1007.72" cy="700.1" fill="#132e65"></circle><circle r="5" cx="1134.66" cy="-79.82" fill="#132e65"></circle><circle r="5" cx="1137.8" cy="51.19" fill="#132e65"></circle><circle r="5" cx="1160.19" cy="260.05" fill="#132e65"></circle><circle r="5" cx="1156.81" cy="705.83" fill="#132e65"></circle><circle r="5" cx="1306.86" cy="-80.95" fill="#132e65"></circle><circle r="5" cx="1281.65" cy="193.44" fill="#132e65"></circle><circle r="5" cx="1297.33" cy="384.49" fill="#132e65"></circle><circle r="5" cx="1296" cy="541.63" fill="#132e65"></circle><circle r="5" cx="1267.22" cy="667.04" fill="#132e65"></circle><circle r="5" cx="1413.26" cy="-77.35" fill="#132e65"></circle><circle r="5" cx="1394.1" cy="82.22" fill="#132e65"></circle><circle r="5" cx="1429.58" cy="207.47" fill="#132e65"></circle><circle r="5" cx="1425.76" cy="401.18" fill="#132e65"></circle><circle r="5" cx="1438.79" cy="502.78" fill="#132e65"></circle><circle r="5" cx="1419.35" cy="685.44" fill="#132e65"></circle><circle r="5" cx="1587.06" cy="-85.24" fill="#132e65"></circle><circle r="5" cx="1579.99" cy="43.6" fill="#132e65"></circle><circle r="5" cx="1610.55" cy="260.43" fill="#132e65"></circle><circle r="5" cx="1574.11" cy="338.28" fill="#132e65"></circle><circle r="5" cx="1582.73" cy="506.46" fill="#132e65"></circle><circle r="5" cx="1604.98" cy="672.99" fill="#132e65"></circle><path d="M-102.71 554.16L-102.71 554.16" stroke="hsl(228.5, 77.2%, 51.5%)" stroke-width="1.5"></path><path d="M-102.71 554.16L-40.4 672.43" stroke="hsl(228.5, 77.2%, 51.5%)" stroke-width="1.5"></path><path d="M-102.71 554.16L-96.6 407.88" stroke="hsl(228.5, 77.2%, 51.5%)" stroke-width="1.5"></path><path d="M-102.71 554.16L58.38 505.81" stroke="hsl(228.5, 77.2%, 51.5%)" stroke-width="1.5"></path><path d="M-102.71 554.16L195.57 531.33" stroke="hsl(228.5, 77.2%, 51.5%)" stroke-width="1.5"></path><path d="M-102.71 554.16L248.32 646.37" stroke="hsl(228.5, 77.2%, 51.5%)" stroke-width="1.5"></path><path d="M525.25 517.32L525.25 517.32" stroke="hsl(228.5, 77.2%, 51.5%)" stroke-width="1.5"></path><path d="M525.25 517.32L546.15 399.06" stroke="hsl(228.5, 77.2%, 51.5%)" stroke-width="1.5"></path><path d="M525.25 517.32L695.02 512.41" stroke="hsl(228.5, 77.2%, 51.5%)" stroke-width="1.5"></path><path d="M525.25 517.32L560.69 697.19" stroke="hsl(228.5, 77.2%, 51.5%)" stroke-width="1.5"></path><path d="M525.25 517.32L638.16 371.73" stroke="hsl(228.5, 77.2%, 51.5%)" stroke-width="1.5"></path><path d="M525.25 517.32L380.92 677.69" stroke="hsl(228.5, 77.2%, 51.5%)" stroke-width="1.5"></path><path d="M525.25 517.32L345.81 386.64" stroke="hsl(228.5, 77.2%, 51.5%)" stroke-width="1.5"></path><path d="M560.69 697.19L560.69 697.19" stroke="hsl(228.5, 77.2%, 51.5%)" stroke-width="1.5"></path><path d="M560.69 697.19L380.92 677.69" stroke="hsl(228.5, 77.2%, 51.5%)" stroke-width="1.5"></path><path d="M560.69 697.19L695.02 512.41" stroke="hsl(228.5, 77.2%, 51.5%)" stroke-width="1.5"></path><path d="M821.96 690.43L821.96 690.43" stroke="hsl(228.5, 77.2%, 51.5%)" stroke-width="1.5"></path><path d="M821.96 690.43L979.52 699.74" stroke="hsl(228.5, 77.2%, 51.5%)" stroke-width="1.5"></path><path d="M821.96 690.43L940.65 510.48" stroke="hsl(228.5, 77.2%, 51.5%)" stroke-width="1.5"></path><path d="M821.96 690.43L695.02 512.41" stroke="hsl(228.5, 77.2%, 51.5%)" stroke-width="1.5"></path><path d="M821.96 690.43L560.69 697.19" stroke="hsl(228.5, 77.2%, 51.5%)" stroke-width="1.5"></path><path d="M972.07 405.03L972.07 405.03" stroke="hsl(228.5, 77.2%, 51.5%)" stroke-width="1.5"></path><path d="M972.07 405.03L940.65 510.48" stroke="hsl(228.5, 77.2%, 51.5%)" stroke-width="1.5"></path><path d="M972.07 405.03L1096.61 392.25" stroke="hsl(228.5, 77.2%, 51.5%)" stroke-width="1.5"></path><path d="M972.07 405.03L827.86 359.28" stroke="hsl(228.5, 77.2%, 51.5%)" stroke-width="1.5"></path><path d="M972.07 405.03L940.36 253.61" stroke="hsl(228.5, 77.2%, 51.5%)" stroke-width="1.5"></path><path d="M972.07 405.03L1098.64 208.99" stroke="hsl(228.5, 77.2%, 51.5%)" stroke-width="1.5"></path><path d="M972.07 405.03L1250.22 407.44" stroke="hsl(228.5, 77.2%, 51.5%)" stroke-width="1.5"></path><path d="M979.52 699.74L979.52 699.74" stroke="hsl(228.5, 77.2%, 51.5%)" stroke-width="1.5"></path><path d="M979.52 699.74L1095.77 679.39" stroke="hsl(228.5, 77.2%, 51.5%)" stroke-width="1.5"></path><path d="M979.52 699.74L940.65 510.48" stroke="hsl(228.5, 77.2%, 51.5%)" stroke-width="1.5"></path><path d="M979.52 699.74L1264.68 683.25" stroke="hsl(228.5, 77.2%, 51.5%)" stroke-width="1.5"></path><path d="M1309.89 -71.08L1309.89 -71.08" stroke="hsl(228.5, 77.2%, 51.5%)" stroke-width="1.5"></path><path d="M1309.89 -71.08L1296.7 49.95" stroke="hsl(228.5, 77.2%, 51.5%)" stroke-width="1.5"></path><path d="M1309.89 -71.08L1455.93 -56.48" stroke="hsl(228.5, 77.2%, 51.5%)" stroke-width="1.5"></path><path d="M1309.89 -71.08L1419.9 85.34" stroke="hsl(228.5, 77.2%, 51.5%)" stroke-width="1.5"></path><path d="M1309.89 -71.08L1157.6 79.91" stroke="hsl(228.5, 77.2%, 51.5%)" stroke-width="1.5"></path><path d="M1309.89 -71.08L1567.51 -54.2" stroke="hsl(228.5, 77.2%, 51.5%)" stroke-width="1.5"></path><path d="M1605.81 371.39L1605.81 371.39" stroke="hsl(228.5, 77.2%, 51.5%)" stroke-width="1.5"></path><path d="M1605.81 371.39L1439.44 337.9" stroke="hsl(228.5, 77.2%, 51.5%)" stroke-width="1.5"></path><path d="M1605.81 371.39L1559.13 203.96" stroke="hsl(228.5, 77.2%, 51.5%)" stroke-width="1.5"></path><path d="M1605.81 371.39L1440.56 259.23" stroke="hsl(228.5, 77.2%, 51.5%)" stroke-width="1.5"></path><path d="M1605.81 371.39L1454.06 522.21" stroke="hsl(228.5, 77.2%, 51.5%)" stroke-width="1.5"></path><path d="M-96.6 407.88L-96.6 407.88" stroke="hsl(228.5, 77.2%, 51.5%)" stroke-width="1.5"></path><path d="M-96.6 407.88L58.38 505.81" stroke="hsl(228.5, 77.2%, 51.5%)" stroke-width="1.5"></path><path d="M-96.6 407.88L-40.4 672.43" stroke="hsl(228.5, 77.2%, 51.5%)" stroke-width="1.5"></path><path d="M-40.4 672.43L-40.4 672.43" stroke="hsl(228.5, 77.2%, 51.5%)" stroke-width="1.5"></path><path d="M-40.4 672.43L58.38 505.81" stroke="hsl(228.5, 77.2%, 51.5%)" stroke-width="1.5"></path><path d="M-40.4 672.43L195.57 531.33" stroke="hsl(228.5, 77.2%, 51.5%)" stroke-width="1.5"></path><path d="M-40.4 672.43L248.32 646.37" stroke="hsl(228.5, 77.2%, 51.5%)" stroke-width="1.5"></path><path d="M-40.4 672.43L380.92 677.69" stroke="hsl(228.5, 77.2%, 51.5%)" stroke-width="1.5"></path><path d="M58.38 505.81L58.38 505.81" stroke="hsl(228.5, 77.2%, 51.5%)" stroke-width="1.5"></path><path d="M58.38 505.81L195.57 531.33" stroke="hsl(228.5, 77.2%, 51.5%)" stroke-width="1.5"></path><path d="M195.57 531.33L195.57 531.33" stroke="hsl(228.5, 77.2%, 51.5%)" stroke-width="1.5"></path><path d="M195.57 531.33L248.32 646.37" stroke="hsl(228.5, 77.2%, 51.5%)" stroke-width="1.5"></path><path d="M248.32 646.37L248.32 646.37" stroke="hsl(228.5, 77.2%, 51.5%)" stroke-width="1.5"></path><path d="M248.32 646.37L380.92 677.69" stroke="hsl(228.5, 77.2%, 51.5%)" stroke-width="1.5"></path><path d="M248.32 646.37L58.38 505.81" stroke="hsl(228.5, 77.2%, 51.5%)" stroke-width="1.5"></path><path d="M345.81 386.64L345.81 386.64" stroke="hsl(228.5, 77.2%, 51.5%)" stroke-width="1.5"></path><path d="M345.81 386.64L546.15 399.06" stroke="hsl(228.5, 77.2%, 51.5%)" stroke-width="1.5"></path><path d="M345.81 386.64L195.57 531.33" stroke="hsl(228.5, 77.2%, 51.5%)" stroke-width="1.5"></path><path d="M380.92 677.69L380.92 677.69" stroke="hsl(228.5, 77.2%, 51.5%)" stroke-width="1.5"></path><path d="M546.15 399.06L546.15 399.06" stroke="hsl(228.5, 77.2%, 51.5%)" stroke-width="1.5"></path><path d="M546.15 399.06L638.16 371.73" stroke="hsl(228.5, 77.2%, 51.5%)" stroke-width="1.5"></path><path d="M546.15 399.06L695.02 512.41" stroke="hsl(228.5, 77.2%, 51.5%)" stroke-width="1.5"></path><path d="M546.15 399.06L827.86 359.28" stroke="hsl(228.5, 77.2%, 51.5%)" stroke-width="1.5"></path><path d="M638.16 371.73L638.16 371.73" stroke="hsl(228.5, 77.2%, 51.5%)" stroke-width="1.5"></path><path d="M638.16 371.73L695.02 512.41" stroke="hsl(228.5, 77.2%, 51.5%)" stroke-width="1.5"></path><path d="M695.02 512.41L695.02 512.41" stroke="hsl(228.5, 77.2%, 51.5%)" stroke-width="1.5"></path><path d="M695.02 512.41L827.86 359.28" stroke="hsl(228.5, 77.2%, 51.5%)" stroke-width="1.5"></path><path d="M827.86 359.28L827.86 359.28" stroke="hsl(228.5, 77.2%, 51.5%)" stroke-width="1.5"></path><path d="M827.86 359.28L940.36 253.61" stroke="hsl(228.5, 77.2%, 51.5%)" stroke-width="1.5"></path><path d="M827.86 359.28L940.65 510.48" stroke="hsl(228.5, 77.2%, 51.5%)" stroke-width="1.5"></path><path d="M827.86 359.28L638.16 371.73" stroke="hsl(228.5, 77.2%, 51.5%)" stroke-width="1.5"></path><path d="M940.36 253.61L940.36 253.61" stroke="hsl(228.5, 77.2%, 51.5%)" stroke-width="1.5"></path><path d="M940.65 510.48L940.65 510.48" stroke="hsl(228.5, 77.2%, 51.5%)" stroke-width="1.5"></path><path d="M940.65 510.48L1096.61 392.25" stroke="hsl(228.5, 77.2%, 51.5%)" stroke-width="1.5"></path><path d="M1157.6 79.91L1157.6 79.91" stroke="hsl(228.5, 77.2%, 51.5%)" stroke-width="1.5"></path><path d="M1157.6 79.91L1098.64 208.99" stroke="hsl(228.5, 77.2%, 51.5%)" stroke-width="1.5"></path><path d="M1157.6 79.91L1296.7 49.95" stroke="hsl(228.5, 77.2%, 51.5%)" stroke-width="1.5"></path><path d="M1157.6 79.91L1300.29 224.37" stroke="hsl(228.5, 77.2%, 51.5%)" stroke-width="1.5"></path><path d="M1098.64 208.99L1098.64 208.99" stroke="hsl(228.5, 77.2%, 51.5%)" stroke-width="1.5"></path><path d="M1098.64 208.99L940.36 253.61" stroke="hsl(228.5, 77.2%, 51.5%)" stroke-width="1.5"></path><path d="M1096.61 392.25L1096.61 392.25" stroke="hsl(228.5, 77.2%, 51.5%)" stroke-width="1.5"></path><path d="M1096.61 392.25L1250.22 407.44" stroke="hsl(228.5, 77.2%, 51.5%)" stroke-width="1.5"></path><path d="M1096.61 392.25L1098.64 208.99" stroke="hsl(228.5, 77.2%, 51.5%)" stroke-width="1.5"></path><path d="M1095.77 679.39L1095.77 679.39" stroke="hsl(228.5, 77.2%, 51.5%)" stroke-width="1.5"></path><path d="M1095.77 679.39L1264.68 683.25" stroke="hsl(228.5, 77.2%, 51.5%)" stroke-width="1.5"></path><path d="M1095.77 679.39L940.65 510.48" stroke="hsl(228.5, 77.2%, 51.5%)" stroke-width="1.5"></path><path d="M1095.77 679.39L1301.8 551.72" stroke="hsl(228.5, 77.2%, 51.5%)" stroke-width="1.5"></path><path d="M1296.7 49.95L1296.7 49.95" stroke="hsl(228.5, 77.2%, 51.5%)" stroke-width="1.5"></path><path d="M1296.7 49.95L1419.9 85.34" stroke="hsl(228.5, 77.2%, 51.5%)" stroke-width="1.5"></path><path d="M1296.7 49.95L1300.29 224.37" stroke="hsl(228.5, 77.2%, 51.5%)" stroke-width="1.5"></path><path d="M1300.29 224.37L1300.29 224.37" stroke="hsl(228.5, 77.2%, 51.5%)" stroke-width="1.5"></path><path d="M1300.29 224.37L1440.56 259.23" stroke="hsl(228.5, 77.2%, 51.5%)" stroke-width="1.5"></path><path d="M1300.29 224.37L1439.44 337.9" stroke="hsl(228.5, 77.2%, 51.5%)" stroke-width="1.5"></path><path d="M1300.29 224.37L1419.9 85.34" stroke="hsl(228.5, 77.2%, 51.5%)" stroke-width="1.5"></path><path d="M1250.22 407.44L1250.22 407.44" stroke="hsl(228.5, 77.2%, 51.5%)" stroke-width="1.5"></path><path d="M1250.22 407.44L1301.8 551.72" stroke="hsl(228.5, 77.2%, 51.5%)" stroke-width="1.5"></path><path d="M1250.22 407.44L1300.29 224.37" stroke="hsl(228.5, 77.2%, 51.5%)" stroke-width="1.5"></path><path d="M1250.22 407.44L1439.44 337.9" stroke="hsl(228.5, 77.2%, 51.5%)" stroke-width="1.5"></path><path d="M1301.8 551.72L1301.8 551.72" stroke="hsl(228.5, 77.2%, 51.5%)" stroke-width="1.5"></path><path d="M1301.8 551.72L1264.68 683.25" stroke="hsl(228.5, 77.2%, 51.5%)" stroke-width="1.5"></path><path d="M1264.68 683.25L1264.68 683.25" stroke="hsl(228.5, 77.2%, 51.5%)" stroke-width="1.5"></path><path d="M1455.93 -56.48L1455.93 -56.48" stroke="hsl(228.5, 77.2%, 51.5%)" stroke-width="1.5"></path><path d="M1455.93 -56.48L1567.51 -54.2" stroke="hsl(228.5, 77.2%, 51.5%)" stroke-width="1.5"></path><path d="M1455.93 -56.48L1554.72 42.64" stroke="hsl(228.5, 77.2%, 51.5%)" stroke-width="1.5"></path><path d="M1455.93 -56.48L1419.9 85.34" stroke="hsl(228.5, 77.2%, 51.5%)" stroke-width="1.5"></path><path d="M1455.93 -56.48L1296.7 49.95" stroke="hsl(228.5, 77.2%, 51.5%)" stroke-width="1.5"></path><path d="M1455.93 -56.48L1559.13 203.96" stroke="hsl(228.5, 77.2%, 51.5%)" stroke-width="1.5"></path><path d="M1419.9 85.34L1419.9 85.34" stroke="hsl(228.5, 77.2%, 51.5%)" stroke-width="1.5"></path><path d="M1419.9 85.34L1554.72 42.64" stroke="hsl(228.5, 77.2%, 51.5%)" stroke-width="1.5"></path><path d="M1440.56 259.23L1440.56 259.23" stroke="hsl(228.5, 77.2%, 51.5%)" stroke-width="1.5"></path><path d="M1440.56 259.23L1439.44 337.9" stroke="hsl(228.5, 77.2%, 51.5%)" stroke-width="1.5"></path><path d="M1440.56 259.23L1559.13 203.96" stroke="hsl(228.5, 77.2%, 51.5%)" stroke-width="1.5"></path><path d="M1439.44 337.9L1439.44 337.9" stroke="hsl(228.5, 77.2%, 51.5%)" stroke-width="1.5"></path><path d="M1439.44 337.9L1559.13 203.96" stroke="hsl(228.5, 77.2%, 51.5%)" stroke-width="1.5"></path><path d="M1439.44 337.9L1454.06 522.21" stroke="hsl(228.5, 77.2%, 51.5%)" stroke-width="1.5"></path><path d="M1454.06 522.21L1454.06 522.21" stroke="hsl(228.5, 77.2%, 51.5%)" stroke-width="1.5"></path><path d="M1454.06 522.21L1301.8 551.72" stroke="hsl(228.5, 77.2%, 51.5%)" stroke-width="1.5"></path><path d="M1454.06 522.21L1566.05 641.19" stroke="hsl(228.5, 77.2%, 51.5%)" stroke-width="1.5"></path><path d="M1454.16 710.37L1454.16 710.37" stroke="hsl(228.5, 77.2%, 51.5%)" stroke-width="1.5"></path><path d="M1454.16 710.37L1566.05 641.19" stroke="hsl(228.5, 77.2%, 51.5%)" stroke-width="1.5"></path><path d="M1454.16 710.37L1454.06 522.21" stroke="hsl(228.5, 77.2%, 51.5%)" stroke-width="1.5"></path><path d="M1567.51 -54.2L1567.51 -54.2" stroke="hsl(228.5, 77.2%, 51.5%)" stroke-width="1.5"></path><path d="M1567.51 -54.2L1554.72 42.64" stroke="hsl(228.5, 77.2%, 51.5%)" stroke-width="1.5"></path><path d="M1567.51 -54.2L1419.9 85.34" stroke="hsl(228.5, 77.2%, 51.5%)" stroke-width="1.5"></path><path d="M1554.72 42.64L1554.72 42.64" stroke="hsl(228.5, 77.2%, 51.5%)" stroke-width="1.5"></path><path d="M1559.13 203.96L1559.13 203.96" stroke="hsl(228.5, 77.2%, 51.5%)" stroke-width="1.5"></path><path d="M1559.13 203.96L1554.72 42.64" stroke="hsl(228.5, 77.2%, 51.5%)" stroke-width="1.5"></path><path d="M1566.05 641.19L1566.05 641.19" stroke="hsl(228.5, 77.2%, 51.5%)" stroke-width="1.5"></path><circle r="25" cx="-102.71" cy="554.16" fill="url(#SvgjsRadialGradient1068)"></circle><circle r="25" cx="525.25" cy="517.32" fill="url(#SvgjsRadialGradient1068)"></circle><circle r="25" cx="560.69" cy="697.19" fill="url(#SvgjsRadialGradient1068)"></circle><circle r="25" cx="821.96" cy="690.43" fill="url(#SvgjsRadialGradient1068)"></circle><circle r="25" cx="972.07" cy="405.03" fill="url(#SvgjsRadialGradient1068)"></circle><circle r="25" cx="979.52" cy="699.74" fill="url(#SvgjsRadialGradient1068)"></circle><circle r="25" cx="1309.89" cy="-71.08" fill="url(#SvgjsRadialGradient1068)"></circle><circle r="25" cx="1605.81" cy="371.39" fill="url(#SvgjsRadialGradient1068)"></circle><circle r="5" cx="-96.6" cy="407.88" fill="#8b9ad9"></circle><circle r="5" cx="-40.4" cy="672.43" fill="#8b9ad9"></circle><circle r="5" cx="58.38" cy="505.81" fill="#8b9ad9"></circle><circle r="5" cx="195.57" cy="531.33" fill="#8b9ad9"></circle><circle r="5" cx="248.32" cy="646.37" fill="#8b9ad9"></circle><circle r="5" cx="345.81" cy="386.64" fill="#8b9ad9"></circle><circle r="5" cx="380.92" cy="677.69" fill="#8b9ad9"></circle><circle r="5" cx="546.15" cy="399.06" fill="#8b9ad9"></circle><circle r="5" cx="638.16" cy="371.73" fill="#8b9ad9"></circle><circle r="5" cx="695.02" cy="512.41" fill="#8b9ad9"></circle><circle r="5" cx="827.86" cy="359.28" fill="#8b9ad9"></circle><circle r="5" cx="940.36" cy="253.61" fill="#8b9ad9"></circle><circle r="5" cx="940.65" cy="510.48" fill="#8b9ad9"></circle><circle r="5" cx="1157.6" cy="79.91" fill="#8b9ad9"></circle><circle r="5" cx="1098.64" cy="208.99" fill="#8b9ad9"></circle><circle r="5" cx="1096.61" cy="392.25" fill="#8b9ad9"></circle><circle r="5" cx="1095.77" cy="679.39" fill="#8b9ad9"></circle><circle r="5" cx="1296.7" cy="49.95" fill="#8b9ad9"></circle><circle r="5" cx="1300.29" cy="224.37" fill="#8b9ad9"></circle><circle r="5" cx="1250.22" cy="407.44" fill="#8b9ad9"></circle><circle r="5" cx="1301.8" cy="551.72" fill="#8b9ad9"></circle><circle r="5" cx="1264.68" cy="683.25" fill="#8b9ad9"></circle><circle r="5" cx="1455.93" cy="-56.48" fill="#8b9ad9"></circle><circle r="5" cx="1419.9" cy="85.34" fill="#8b9ad9"></circle><circle r="5" cx="1440.56" cy="259.23" fill="#8b9ad9"></circle><circle r="5" cx="1439.44" cy="337.9" fill="#8b9ad9"></circle><circle r="5" cx="1454.06" cy="522.21" fill="#8b9ad9"></circle><circle r="5" cx="1454.16" cy="710.37" fill="#8b9ad9"></circle><circle r="5" cx="1567.51" cy="-54.2" fill="#8b9ad9"></circle><circle r="5" cx="1554.72" cy="42.64" fill="#8b9ad9"></circle><circle r="5" cx="1559.13" cy="203.96" fill="#8b9ad9"></circle><circle r="5" cx="1566.05" cy="641.19" fill="#8b9ad9"></circle></g><defs><mask id="SvgjsMask1066"><rect width="1440" height="500" fill="#ffffff"></rect></mask><linearGradient x1="16.32%" y1="-47%" x2="83.68%" y2="147%" gradientUnits="userSpaceOnUse" id="SvgjsLinearGradient1067"><stop stop-color="#0e2a47" offset="0"></stop><stop stop-color="#00459e" offset="1"></stop></linearGradient><radialGradient id="SvgjsRadialGradient1068"><stop stop-color="#ffffff" offset="0.1"></stop><stop stop-color="#1735b3" offset="0.2"></stop><stop stop-color="rgba(23, 53, 179, 0)" offset="1"></stop></radialGradient></defs></svg>